<mxfile host="app.diagrams.net" agent="Mozilla/5.0 (Windows NT 10.0; Win64; x64; rv:132.0) Gecko/20100101 Firefox/132.0" version="24.9.1">
  <diagram id="C5RBs43oDa-KdzZeNtuy" name="Page-1">
    <mxGraphModel dx="2577" dy="8159" grid="1" gridSize="10" guides="1" tooltips="1" connect="1" arrows="1" fold="1" page="1" pageScale="1" pageWidth="827" pageHeight="1169" math="0" shadow="0">
      <root>
        <mxCell id="WIyWlLk6GJQsqaUBKTNV-0" />
        <mxCell id="WIyWlLk6GJQsqaUBKTNV-1" parent="WIyWlLk6GJQsqaUBKTNV-0" />
        <mxCell id="Z3DLxL-PWDboXXJ2maVI-104" value="fi.tuni.TampereTrafficApp" style="shape=umlFrame;whiteSpace=wrap;html=1;pointerEvents=0;recursiveResize=0;container=1;collapsible=0;width=160;" parent="WIyWlLk6GJQsqaUBKTNV-1" vertex="1">
          <mxGeometry x="400" y="-3670" width="3620" height="1470" as="geometry" />
        </mxCell>
        <mxCell id="Z3DLxL-PWDboXXJ2maVI-105" value="fi.tuni.TampereTrafficApp.servises" style="shape=umlFrame;whiteSpace=wrap;html=1;pointerEvents=0;recursiveResize=0;container=1;collapsible=0;width=220;height=40;" parent="Z3DLxL-PWDboXXJ2maVI-104" vertex="1">
          <mxGeometry x="30" y="500" width="650" height="640" as="geometry" />
        </mxCell>
        <mxCell id="u9IRBjyvt4qCOGh6tf9W-12" value="TrafficIncidentService" style="swimlane;fontStyle=1;align=center;verticalAlign=top;childLayout=stackLayout;horizontal=1;startSize=26;horizontalStack=0;resizeParent=1;resizeParentMax=0;resizeLast=0;collapsible=1;marginBottom=0;whiteSpace=wrap;html=1;" parent="Z3DLxL-PWDboXXJ2maVI-105" vertex="1">
          <mxGeometry x="30" y="66" width="270" height="220" as="geometry" />
        </mxCell>
        <mxCell id="u9IRBjyvt4qCOGh6tf9W-13" value="&lt;div&gt;+ BASE_URL: String&lt;/div&gt;&lt;div&gt;+ INCIDENTS_ENDPOINT: String&lt;/div&gt;&lt;div&gt;+ webClient: WebClient&lt;/div&gt;&lt;div&gt;+ storedSituationRecords: List&amp;lt;SituationRecord&amp;gt;&lt;/div&gt;&lt;br&gt;&lt;div&gt;&lt;br&gt;&lt;/div&gt;" style="text;strokeColor=none;fillColor=none;align=left;verticalAlign=top;spacingLeft=4;spacingRight=4;overflow=hidden;rotatable=0;points=[[0,0.5],[1,0.5]];portConstraint=eastwest;whiteSpace=wrap;html=1;" parent="u9IRBjyvt4qCOGh6tf9W-12" vertex="1">
          <mxGeometry y="26" width="270" height="94" as="geometry" />
        </mxCell>
        <mxCell id="u9IRBjyvt4qCOGh6tf9W-14" value="" style="line;strokeWidth=1;fillColor=none;align=left;verticalAlign=middle;spacingTop=-1;spacingLeft=3;spacingRight=3;rotatable=0;labelPosition=right;points=[];portConstraint=eastwest;strokeColor=inherit;" parent="u9IRBjyvt4qCOGh6tf9W-12" vertex="1">
          <mxGeometry y="120" width="270" height="8" as="geometry" />
        </mxCell>
        <mxCell id="u9IRBjyvt4qCOGh6tf9W-15" value="&lt;div&gt;- TrafficIncidentService(WebClient.Builder: webClientBuilder)&lt;br&gt;&lt;/div&gt;&lt;div&gt;- getSituationRecords: List&amp;lt;SituationRecord&amp;gt;&lt;/div&gt;&lt;div&gt;- getSituationRecordById(String recordId): Optional&amp;lt;SituationRecord&amp;gt;&lt;/div&gt;" style="text;strokeColor=none;fillColor=none;align=left;verticalAlign=top;spacingLeft=4;spacingRight=4;overflow=hidden;rotatable=0;points=[[0,0.5],[1,0.5]];portConstraint=eastwest;whiteSpace=wrap;html=1;" parent="u9IRBjyvt4qCOGh6tf9W-12" vertex="1">
          <mxGeometry y="128" width="270" height="92" as="geometry" />
        </mxCell>
        <mxCell id="u9IRBjyvt4qCOGh6tf9W-8" value="TrafficCameraService" style="swimlane;fontStyle=1;align=center;verticalAlign=top;childLayout=stackLayout;horizontal=1;startSize=26;horizontalStack=0;resizeParent=1;resizeParentMax=0;resizeLast=0;collapsible=1;marginBottom=0;whiteSpace=wrap;html=1;" parent="Z3DLxL-PWDboXXJ2maVI-105" vertex="1">
          <mxGeometry x="357" y="66" width="270" height="220" as="geometry" />
        </mxCell>
        <mxCell id="u9IRBjyvt4qCOGh6tf9W-9" value="&lt;div&gt;+ Base_URL: String&lt;br&gt;&lt;/div&gt;&lt;div&gt;+ CAMERA_ENDPOINT: String&lt;/div&gt;&lt;div&gt;+ webClient: WebClient&lt;/div&gt;&lt;div&gt;+ storedTrafficCameras: List&amp;gt;TrafficCamera&amp;gt;&lt;/div&gt;&lt;div&gt;+ storedMeta: Meta&lt;/div&gt;&lt;br&gt;&lt;div&gt;&lt;br&gt;&lt;/div&gt;" style="text;strokeColor=none;fillColor=none;align=left;verticalAlign=top;spacingLeft=4;spacingRight=4;overflow=hidden;rotatable=0;points=[[0,0.5],[1,0.5]];portConstraint=eastwest;whiteSpace=wrap;html=1;" parent="u9IRBjyvt4qCOGh6tf9W-8" vertex="1">
          <mxGeometry y="26" width="270" height="84" as="geometry" />
        </mxCell>
        <mxCell id="u9IRBjyvt4qCOGh6tf9W-10" value="" style="line;strokeWidth=1;fillColor=none;align=left;verticalAlign=middle;spacingTop=-1;spacingLeft=3;spacingRight=3;rotatable=0;labelPosition=right;points=[];portConstraint=eastwest;strokeColor=inherit;" parent="u9IRBjyvt4qCOGh6tf9W-8" vertex="1">
          <mxGeometry y="110" width="270" height="8" as="geometry" />
        </mxCell>
        <mxCell id="u9IRBjyvt4qCOGh6tf9W-11" value="&lt;div&gt;- TrafficCameraService(webClientBuilder: webClient.Builder)&lt;/div&gt;&lt;div&gt;- getTrafficCameras(): List&amp;lt;TrafficCamera&amp;gt;&lt;/div&gt;&lt;div&gt;-getTrafficCameraById(cameraID:String): Optional&amp;lt;TrafficCamera&amp;gt;&lt;/div&gt;&lt;div&gt;-getMeta(): Meta&lt;br&gt;&lt;/div&gt;" style="text;strokeColor=none;fillColor=none;align=left;verticalAlign=top;spacingLeft=4;spacingRight=4;overflow=hidden;rotatable=0;points=[[0,0.5],[1,0.5]];portConstraint=eastwest;whiteSpace=wrap;html=1;" parent="u9IRBjyvt4qCOGh6tf9W-8" vertex="1">
          <mxGeometry y="118" width="270" height="102" as="geometry" />
        </mxCell>
        <mxCell id="rCoHJdOsXaLGTf1SRdRo-0" value="WeatherCameraService" style="swimlane;fontStyle=1;align=center;verticalAlign=top;childLayout=stackLayout;horizontal=1;startSize=26;horizontalStack=0;resizeParent=1;resizeParentMax=0;resizeLast=0;collapsible=1;marginBottom=0;whiteSpace=wrap;html=1;" parent="Z3DLxL-PWDboXXJ2maVI-105" vertex="1">
          <mxGeometry x="30" y="300" width="270" height="270" as="geometry" />
        </mxCell>
        <mxCell id="rCoHJdOsXaLGTf1SRdRo-1" value="&lt;div&gt;+ webClient: WebClient&lt;/div&gt;&lt;div&gt;+ appConfig: AppConfig&lt;/div&gt;&lt;div&gt;+ storedWeatherCameras: List&amp;lt;WeatherCameraFeature&amp;gt;&lt;/div&gt;&lt;div&gt;&lt;br&gt;&lt;/div&gt;" style="text;strokeColor=none;fillColor=none;align=left;verticalAlign=top;spacingLeft=4;spacingRight=4;overflow=hidden;rotatable=0;points=[[0,0.5],[1,0.5]];portConstraint=eastwest;whiteSpace=wrap;html=1;" parent="rCoHJdOsXaLGTf1SRdRo-0" vertex="1">
          <mxGeometry y="26" width="270" height="94" as="geometry" />
        </mxCell>
        <mxCell id="rCoHJdOsXaLGTf1SRdRo-2" value="" style="line;strokeWidth=1;fillColor=none;align=left;verticalAlign=middle;spacingTop=-1;spacingLeft=3;spacingRight=3;rotatable=0;labelPosition=right;points=[];portConstraint=eastwest;strokeColor=inherit;" parent="rCoHJdOsXaLGTf1SRdRo-0" vertex="1">
          <mxGeometry y="120" width="270" height="8" as="geometry" />
        </mxCell>
        <mxCell id="rCoHJdOsXaLGTf1SRdRo-3" value="&lt;div&gt;- WeatherCameraService(webClientBuilder: WebClient.Builder, appConfig: AppConfig)&lt;/div&gt;&lt;div&gt;-fetchAndStoreWeatherCameras(): void&lt;/div&gt;&lt;div&gt;-getWeatherCameras(): List&amp;lt;WeatherCameraFeature&amp;gt;&lt;/div&gt;&lt;div&gt;- getWeatherCameraById(id: String): Optional&amp;lt;WeatherCameraFeature&amp;gt;&lt;/div&gt;&lt;div&gt;- getTienpintaCameras(): List&amp;lt;WeatherCameraFeature&amp;gt;&lt;/div&gt;" style="text;strokeColor=none;fillColor=none;align=left;verticalAlign=top;spacingLeft=4;spacingRight=4;overflow=hidden;rotatable=0;points=[[0,0.5],[1,0.5]];portConstraint=eastwest;whiteSpace=wrap;html=1;" parent="rCoHJdOsXaLGTf1SRdRo-0" vertex="1">
          <mxGeometry y="128" width="270" height="142" as="geometry" />
        </mxCell>
        <mxCell id="u9IRBjyvt4qCOGh6tf9W-28" value="TampereTrafficAppApplication" style="swimlane;fontStyle=1;align=center;verticalAlign=top;childLayout=stackLayout;horizontal=1;startSize=26;horizontalStack=0;resizeParent=1;resizeParentMax=0;resizeLast=0;collapsible=1;marginBottom=0;whiteSpace=wrap;html=1;" parent="Z3DLxL-PWDboXXJ2maVI-104" vertex="1">
          <mxGeometry x="501" y="1220" width="340" height="70" as="geometry" />
        </mxCell>
        <mxCell id="u9IRBjyvt4qCOGh6tf9W-30" value="" style="line;strokeWidth=1;fillColor=none;align=left;verticalAlign=middle;spacingTop=-1;spacingLeft=3;spacingRight=3;rotatable=0;labelPosition=right;points=[];portConstraint=eastwest;strokeColor=inherit;" parent="u9IRBjyvt4qCOGh6tf9W-28" vertex="1">
          <mxGeometry y="26" width="340" height="8" as="geometry" />
        </mxCell>
        <mxCell id="u9IRBjyvt4qCOGh6tf9W-31" value="+ main(args: String[]): void" style="text;strokeColor=none;fillColor=none;align=left;verticalAlign=top;spacingLeft=4;spacingRight=4;overflow=hidden;rotatable=0;points=[[0,0.5],[1,0.5]];portConstraint=eastwest;whiteSpace=wrap;html=1;" parent="u9IRBjyvt4qCOGh6tf9W-28" vertex="1">
          <mxGeometry y="34" width="340" height="36" as="geometry" />
        </mxCell>
        <mxCell id="Z3DLxL-PWDboXXJ2maVI-115" value="fi.tuni.TampereTrafficApp.controller" style="shape=umlFrame;whiteSpace=wrap;html=1;pointerEvents=0;recursiveResize=0;container=1;collapsible=0;width=220;height=40;" parent="Z3DLxL-PWDboXXJ2maVI-104" vertex="1">
          <mxGeometry x="30" y="100" width="760" height="390" as="geometry" />
        </mxCell>
        <mxCell id="Z3DLxL-PWDboXXJ2maVI-116" value="TrafficIncidentController                 " style="swimlane;fontStyle=1;align=center;verticalAlign=top;childLayout=stackLayout;horizontal=1;startSize=26;horizontalStack=0;resizeParent=1;resizeParentMax=0;resizeLast=0;collapsible=1;marginBottom=0;whiteSpace=wrap;html=1;" parent="Z3DLxL-PWDboXXJ2maVI-115" vertex="1">
          <mxGeometry x="20" y="70" width="350" height="140" as="geometry" />
        </mxCell>
        <mxCell id="Z3DLxL-PWDboXXJ2maVI-117" value="+ trafficIncidentService: TrafficIncidentService" style="text;strokeColor=none;fillColor=none;align=left;verticalAlign=top;spacingLeft=4;spacingRight=4;overflow=hidden;rotatable=0;points=[[0,0.5],[1,0.5]];portConstraint=eastwest;whiteSpace=wrap;html=1;" parent="Z3DLxL-PWDboXXJ2maVI-116" vertex="1">
          <mxGeometry y="26" width="350" height="24" as="geometry" />
        </mxCell>
        <mxCell id="Z3DLxL-PWDboXXJ2maVI-118" value="" style="line;strokeWidth=1;fillColor=none;align=left;verticalAlign=middle;spacingTop=-1;spacingLeft=3;spacingRight=3;rotatable=0;labelPosition=right;points=[];portConstraint=eastwest;strokeColor=inherit;" parent="Z3DLxL-PWDboXXJ2maVI-116" vertex="1">
          <mxGeometry y="50" width="350" height="8" as="geometry" />
        </mxCell>
        <mxCell id="Z3DLxL-PWDboXXJ2maVI-119" value="&lt;div&gt;+ TrafficIncidentController(trafficIncidentService: TrafficIncidentService)&lt;/div&gt;&lt;div&gt;+ showTrafficIncidents(model: Model): String&lt;/div&gt;&lt;div&gt;+ showTrafficIncidentDetails(recordId: String, model: Model): String&lt;/div&gt;" style="text;strokeColor=none;fillColor=none;align=left;verticalAlign=top;spacingLeft=4;spacingRight=4;overflow=hidden;rotatable=0;points=[[0,0.5],[1,0.5]];portConstraint=eastwest;whiteSpace=wrap;html=1;" parent="Z3DLxL-PWDboXXJ2maVI-116" vertex="1">
          <mxGeometry y="58" width="350" height="82" as="geometry" />
        </mxCell>
        <mxCell id="Z3DLxL-PWDboXXJ2maVI-120" value="TrafficCameraController                   " style="swimlane;fontStyle=1;align=center;verticalAlign=top;childLayout=stackLayout;horizontal=1;startSize=26;horizontalStack=0;resizeParent=1;resizeParentMax=0;resizeLast=0;collapsible=1;marginBottom=0;whiteSpace=wrap;html=1;" parent="Z3DLxL-PWDboXXJ2maVI-115" vertex="1">
          <mxGeometry x="20" y="233" width="350" height="130" as="geometry" />
        </mxCell>
        <mxCell id="Z3DLxL-PWDboXXJ2maVI-121" value="+ trafficCameraService: TrafficCameraService" style="text;strokeColor=none;fillColor=none;align=left;verticalAlign=top;spacingLeft=4;spacingRight=4;overflow=hidden;rotatable=0;points=[[0,0.5],[1,0.5]];portConstraint=eastwest;whiteSpace=wrap;html=1;" parent="Z3DLxL-PWDboXXJ2maVI-120" vertex="1">
          <mxGeometry y="26" width="350" height="24" as="geometry" />
        </mxCell>
        <mxCell id="Z3DLxL-PWDboXXJ2maVI-122" value="" style="line;strokeWidth=1;fillColor=none;align=left;verticalAlign=middle;spacingTop=-1;spacingLeft=3;spacingRight=3;rotatable=0;labelPosition=right;points=[];portConstraint=eastwest;strokeColor=inherit;" parent="Z3DLxL-PWDboXXJ2maVI-120" vertex="1">
          <mxGeometry y="50" width="350" height="8" as="geometry" />
        </mxCell>
        <mxCell id="Z3DLxL-PWDboXXJ2maVI-123" value="&lt;div&gt; + TrafficCameraController(trafficCameraService: TrafficCameraService)&lt;/div&gt;&lt;div&gt;+ showCameraMap(model: Model): String&amp;nbsp;&lt;/div&gt;&lt;div&gt;+ showCameraDetails(cameraId: String, model: Model): String &lt;/div&gt;" style="text;strokeColor=none;fillColor=none;align=left;verticalAlign=top;spacingLeft=4;spacingRight=4;overflow=hidden;rotatable=0;points=[[0,0.5],[1,0.5]];portConstraint=eastwest;whiteSpace=wrap;html=1;" parent="Z3DLxL-PWDboXXJ2maVI-120" vertex="1">
          <mxGeometry y="58" width="350" height="72" as="geometry" />
        </mxCell>
        <mxCell id="rCoHJdOsXaLGTf1SRdRo-4" value="WeatherCameraController" style="swimlane;fontStyle=1;align=center;verticalAlign=top;childLayout=stackLayout;horizontal=1;startSize=26;horizontalStack=0;resizeParent=1;resizeParentMax=0;resizeLast=0;collapsible=1;marginBottom=0;whiteSpace=wrap;html=1;" parent="Z3DLxL-PWDboXXJ2maVI-115" vertex="1">
          <mxGeometry x="390" y="70" width="360" height="140" as="geometry" />
        </mxCell>
        <mxCell id="rCoHJdOsXaLGTf1SRdRo-5" value="+&amp;nbsp;weatherCameraService: WeatherCameraService" style="text;strokeColor=none;fillColor=none;align=left;verticalAlign=top;spacingLeft=4;spacingRight=4;overflow=hidden;rotatable=0;points=[[0,0.5],[1,0.5]];portConstraint=eastwest;whiteSpace=wrap;html=1;" parent="rCoHJdOsXaLGTf1SRdRo-4" vertex="1">
          <mxGeometry y="26" width="360" height="24" as="geometry" />
        </mxCell>
        <mxCell id="rCoHJdOsXaLGTf1SRdRo-6" value="" style="line;strokeWidth=1;fillColor=none;align=left;verticalAlign=middle;spacingTop=-1;spacingLeft=3;spacingRight=3;rotatable=0;labelPosition=right;points=[];portConstraint=eastwest;strokeColor=inherit;" parent="rCoHJdOsXaLGTf1SRdRo-4" vertex="1">
          <mxGeometry y="50" width="360" height="8" as="geometry" />
        </mxCell>
        <mxCell id="rCoHJdOsXaLGTf1SRdRo-7" value="&lt;div&gt;+&amp;nbsp;WeatherCameraController(weatherCameraService:&amp;nbsp;&lt;/div&gt;&lt;div&gt;WeatherCameraService)&lt;/div&gt;&lt;div&gt;+&amp;nbsp;showCameraMap(showTienpinta: boolean,model: Model): String&lt;br&gt;&lt;/div&gt;&lt;div&gt;+&amp;nbsp;showCameraDetails(id: String, model: Model): String&lt;/div&gt;" style="text;strokeColor=none;fillColor=none;align=left;verticalAlign=top;spacingLeft=4;spacingRight=4;overflow=hidden;rotatable=0;points=[[0,0.5],[1,0.5]];portConstraint=eastwest;whiteSpace=wrap;html=1;" parent="rCoHJdOsXaLGTf1SRdRo-4" vertex="1">
          <mxGeometry y="58" width="360" height="82" as="geometry" />
        </mxCell>
        <mxCell id="rCoHJdOsXaLGTf1SRdRo-8" value="HomeController" style="swimlane;fontStyle=1;align=center;verticalAlign=top;childLayout=stackLayout;horizontal=1;startSize=26;horizontalStack=0;resizeParent=1;resizeParentMax=0;resizeLast=0;collapsible=1;marginBottom=0;whiteSpace=wrap;html=1;" parent="Z3DLxL-PWDboXXJ2maVI-115" vertex="1">
          <mxGeometry x="390" y="233" width="360" height="80" as="geometry" />
        </mxCell>
        <mxCell id="rCoHJdOsXaLGTf1SRdRo-10" value="" style="line;strokeWidth=1;fillColor=none;align=left;verticalAlign=middle;spacingTop=-1;spacingLeft=3;spacingRight=3;rotatable=0;labelPosition=right;points=[];portConstraint=eastwest;strokeColor=inherit;" parent="rCoHJdOsXaLGTf1SRdRo-8" vertex="1">
          <mxGeometry y="26" width="360" height="8" as="geometry" />
        </mxCell>
        <mxCell id="rCoHJdOsXaLGTf1SRdRo-11" value="&lt;div&gt;+ HomeController()&lt;/div&gt;&lt;div&gt;+ index(): String&lt;/div&gt;" style="text;strokeColor=none;fillColor=none;align=left;verticalAlign=top;spacingLeft=4;spacingRight=4;overflow=hidden;rotatable=0;points=[[0,0.5],[1,0.5]];portConstraint=eastwest;whiteSpace=wrap;html=1;" parent="rCoHJdOsXaLGTf1SRdRo-8" vertex="1">
          <mxGeometry y="34" width="360" height="46" as="geometry" />
        </mxCell>
        <mxCell id="rCoHJdOsXaLGTf1SRdRo-232" value="&lt;div&gt;fi.tuni.TampereTrafficApp.config&lt;/div&gt;" style="shape=umlFrame;whiteSpace=wrap;html=1;pointerEvents=0;recursiveResize=0;container=1;collapsible=0;width=200;height=40;" parent="Z3DLxL-PWDboXXJ2maVI-104" vertex="1">
          <mxGeometry x="40" y="1180" width="440" height="250" as="geometry" />
        </mxCell>
        <mxCell id="rCoHJdOsXaLGTf1SRdRo-233" value="AppConfig" style="swimlane;fontStyle=1;align=center;verticalAlign=top;childLayout=stackLayout;horizontal=1;startSize=26;horizontalStack=0;resizeParent=1;resizeParentMax=0;resizeLast=0;collapsible=1;marginBottom=0;whiteSpace=wrap;html=1;" parent="rCoHJdOsXaLGTf1SRdRo-232" vertex="1">
          <mxGeometry x="20" y="74" width="410" height="146" as="geometry" />
        </mxCell>
        <mxCell id="rCoHJdOsXaLGTf1SRdRo-234" value="&lt;div&gt;+ digitrafficApiUrl: String&lt;/div&gt;&lt;div&gt;+ CAMERA_IDS: String[]&lt;/div&gt;" style="text;strokeColor=none;fillColor=none;align=left;verticalAlign=top;spacingLeft=4;spacingRight=4;overflow=hidden;rotatable=0;points=[[0,0.5],[1,0.5]];portConstraint=eastwest;whiteSpace=wrap;html=1;" parent="rCoHJdOsXaLGTf1SRdRo-233" vertex="1">
          <mxGeometry y="26" width="410" height="44" as="geometry" />
        </mxCell>
        <mxCell id="rCoHJdOsXaLGTf1SRdRo-235" value="" style="line;strokeWidth=1;fillColor=none;align=left;verticalAlign=middle;spacingTop=-1;spacingLeft=3;spacingRight=3;rotatable=0;labelPosition=right;points=[];portConstraint=eastwest;strokeColor=inherit;" parent="rCoHJdOsXaLGTf1SRdRo-233" vertex="1">
          <mxGeometry y="70" width="410" height="8" as="geometry" />
        </mxCell>
        <mxCell id="rCoHJdOsXaLGTf1SRdRo-236" value="&lt;div&gt;+ getDigitrafficApiUrl(): String&lt;/div&gt;&lt;div&gt;+ getCameraIds(): String[]&lt;/div&gt;&lt;div&gt;+ restTemplate(): RestTemplate&lt;/div&gt;" style="text;strokeColor=none;fillColor=none;align=left;verticalAlign=top;spacingLeft=4;spacingRight=4;overflow=hidden;rotatable=0;points=[[0,0.5],[1,0.5]];portConstraint=eastwest;whiteSpace=wrap;html=1;" parent="rCoHJdOsXaLGTf1SRdRo-233" vertex="1">
          <mxGeometry y="78" width="410" height="68" as="geometry" />
        </mxCell>
        <mxCell id="Z3DLxL-PWDboXXJ2maVI-106" value="fi.tuni.TampereTrafficApp.models" style="shape=umlFrame;whiteSpace=wrap;html=1;pointerEvents=0;recursiveResize=0;container=1;collapsible=0;width=190;height=32;" parent="WIyWlLk6GJQsqaUBKTNV-1" vertex="1">
          <mxGeometry x="1250" y="-3620" width="2770" height="1350" as="geometry" />
        </mxCell>
        <mxCell id="Z3DLxL-PWDboXXJ2maVI-108" value="fi.tuni.TampereTrafficApp.models.TrafficIncident" style="shape=umlFrame;whiteSpace=wrap;html=1;pointerEvents=0;recursiveResize=0;container=1;collapsible=0;width=279;height=30;" parent="Z3DLxL-PWDboXXJ2maVI-106" vertex="1">
          <mxGeometry x="810" y="60" width="1210" height="1080" as="geometry" />
        </mxCell>
        <mxCell id="Z3DLxL-PWDboXXJ2maVI-37" value="&lt;span class=&quot;hljs-variable&quot;&gt;SituationRecord&lt;/span&gt;                           &lt;span class=&quot;hljs-operator&quot;&gt;&lt;/span&gt;" style="swimlane;fontStyle=1;align=center;verticalAlign=top;childLayout=stackLayout;horizontal=1;startSize=26;horizontalStack=0;resizeParent=1;resizeParentMax=0;resizeLast=0;collapsible=1;marginBottom=0;whiteSpace=wrap;html=1;" parent="Z3DLxL-PWDboXXJ2maVI-108" vertex="1">
          <mxGeometry x="10" y="240" width="350" height="774" as="geometry" />
        </mxCell>
        <mxCell id="Z3DLxL-PWDboXXJ2maVI-38" value="+ id: String&amp;nbsp;&amp;nbsp;&amp;nbsp;&amp;nbsp;&amp;nbsp;&amp;nbsp;&amp;nbsp;&amp;nbsp;&amp;nbsp;&amp;nbsp;&amp;nbsp;&amp;nbsp;&amp;nbsp;&amp;nbsp;&amp;nbsp;&amp;nbsp;&amp;nbsp;&amp;nbsp;&amp;nbsp;&amp;nbsp;&amp;nbsp;&amp;nbsp;&amp;nbsp;&amp;nbsp;&amp;nbsp;&amp;nbsp;&amp;nbsp;&amp;nbsp;&amp;nbsp;&amp;nbsp;&amp;nbsp;&amp;nbsp;&amp;nbsp;&amp;nbsp;&amp;nbsp;&amp;nbsp;&amp;nbsp;&amp;nbsp;&amp;nbsp;&amp;nbsp;&amp;nbsp;&amp;nbsp;&amp;nbsp;&amp;nbsp;&amp;nbsp;&amp;nbsp; &amp;nbsp;&lt;br&gt;+ version: String&amp;nbsp;&amp;nbsp;&amp;nbsp;&amp;nbsp;&amp;nbsp;&amp;nbsp;&amp;nbsp;&amp;nbsp;&amp;nbsp;&amp;nbsp;&amp;nbsp;&amp;nbsp;&amp;nbsp;&amp;nbsp;&amp;nbsp;&amp;nbsp;&amp;nbsp;&amp;nbsp;&amp;nbsp;&amp;nbsp;&amp;nbsp;&amp;nbsp;&amp;nbsp;&amp;nbsp;&amp;nbsp;&amp;nbsp;&amp;nbsp;&amp;nbsp;&amp;nbsp;&amp;nbsp;&amp;nbsp;&amp;nbsp;&amp;nbsp;&amp;nbsp;&amp;nbsp;&amp;nbsp;&amp;nbsp;&amp;nbsp;&amp;nbsp;&amp;nbsp;&amp;nbsp; &amp;nbsp;&lt;br&gt;+ creationTime: String&amp;nbsp;&amp;nbsp;&amp;nbsp;&amp;nbsp;&amp;nbsp;&amp;nbsp;&amp;nbsp;&amp;nbsp;&amp;nbsp;&amp;nbsp;&amp;nbsp;&amp;nbsp;&amp;nbsp;&amp;nbsp;&amp;nbsp;&amp;nbsp;&amp;nbsp;&amp;nbsp;&amp;nbsp;&amp;nbsp;&amp;nbsp;&amp;nbsp;&amp;nbsp;&amp;nbsp;&amp;nbsp;&amp;nbsp;&amp;nbsp;&amp;nbsp;&amp;nbsp;&amp;nbsp;&amp;nbsp;&amp;nbsp;&amp;nbsp;&amp;nbsp;&amp;nbsp;&amp;nbsp; &amp;nbsp;&lt;br&gt;+ versionTime: String&amp;nbsp;&amp;nbsp;&amp;nbsp;&amp;nbsp;&amp;nbsp;&amp;nbsp;&amp;nbsp;&amp;nbsp;&amp;nbsp;&amp;nbsp;&amp;nbsp;&amp;nbsp;&amp;nbsp;&amp;nbsp;&amp;nbsp;&amp;nbsp;&amp;nbsp;&amp;nbsp;&amp;nbsp;&amp;nbsp;&amp;nbsp;&amp;nbsp;&amp;nbsp;&amp;nbsp;&amp;nbsp;&amp;nbsp;&amp;nbsp;&amp;nbsp;&amp;nbsp;&amp;nbsp;&amp;nbsp;&amp;nbsp;&amp;nbsp;&amp;nbsp;&amp;nbsp;&amp;nbsp;&amp;nbsp; &amp;nbsp;&lt;br&gt;+ startTime: String&amp;nbsp;&amp;nbsp;&amp;nbsp;&amp;nbsp;&amp;nbsp;&amp;nbsp;&amp;nbsp;&amp;nbsp;&amp;nbsp;&amp;nbsp;&amp;nbsp;&amp;nbsp;&amp;nbsp;&amp;nbsp;&amp;nbsp;&amp;nbsp;&amp;nbsp;&amp;nbsp;&amp;nbsp;&amp;nbsp;&amp;nbsp;&amp;nbsp;&amp;nbsp;&amp;nbsp;&amp;nbsp;&amp;nbsp;&amp;nbsp;&amp;nbsp;&amp;nbsp;&amp;nbsp;&amp;nbsp;&amp;nbsp;&amp;nbsp;&amp;nbsp;&amp;nbsp;&amp;nbsp;&amp;nbsp;&amp;nbsp;&amp;nbsp; &amp;nbsp;&lt;br&gt;+ endTime: String&amp;nbsp;&amp;nbsp;&amp;nbsp;&amp;nbsp;&amp;nbsp;&amp;nbsp;&amp;nbsp;&amp;nbsp;&amp;nbsp;&amp;nbsp;&amp;nbsp;&amp;nbsp;&amp;nbsp;&amp;nbsp;&amp;nbsp;&amp;nbsp;&amp;nbsp;&amp;nbsp;&amp;nbsp;&amp;nbsp;&amp;nbsp;&amp;nbsp;&amp;nbsp;&amp;nbsp;&amp;nbsp;&amp;nbsp;&amp;nbsp;&amp;nbsp;&amp;nbsp;&amp;nbsp;&amp;nbsp;&amp;nbsp;&amp;nbsp;&amp;nbsp;&amp;nbsp;&amp;nbsp;&amp;nbsp;&amp;nbsp;&amp;nbsp;&amp;nbsp;&amp;nbsp; &amp;nbsp;&lt;br&gt;+ type: Type&amp;nbsp;&amp;nbsp;&amp;nbsp;&amp;nbsp;&amp;nbsp;&amp;nbsp;&amp;nbsp;&amp;nbsp;&amp;nbsp;&amp;nbsp;&amp;nbsp;&amp;nbsp;&amp;nbsp;&amp;nbsp;&amp;nbsp;&amp;nbsp;&amp;nbsp;&amp;nbsp;&amp;nbsp;&amp;nbsp;&amp;nbsp;&amp;nbsp;&amp;nbsp;&amp;nbsp;&amp;nbsp;&amp;nbsp;&amp;nbsp;&amp;nbsp;&amp;nbsp;&amp;nbsp;&amp;nbsp;&amp;nbsp;&amp;nbsp;&amp;nbsp;&amp;nbsp;&amp;nbsp;&amp;nbsp;&amp;nbsp;&amp;nbsp;&amp;nbsp;&amp;nbsp;&amp;nbsp;&amp;nbsp;&amp;nbsp;&amp;nbsp; &amp;nbsp;&lt;br&gt;+ detailedType: Type&amp;nbsp;&amp;nbsp;&amp;nbsp;&amp;nbsp;&amp;nbsp;&amp;nbsp;&amp;nbsp;&amp;nbsp;&amp;nbsp;&amp;nbsp;&amp;nbsp;&amp;nbsp;&amp;nbsp;&amp;nbsp;&amp;nbsp;&amp;nbsp;&amp;nbsp;&amp;nbsp;&amp;nbsp;&amp;nbsp;&amp;nbsp;&amp;nbsp;&amp;nbsp;&amp;nbsp;&amp;nbsp;&amp;nbsp;&amp;nbsp;&amp;nbsp;&amp;nbsp;&amp;nbsp;&amp;nbsp;&amp;nbsp;&amp;nbsp;&amp;nbsp;&amp;nbsp;&amp;nbsp;&amp;nbsp; &amp;nbsp;&lt;br&gt;+ detailedTypeText: String&amp;nbsp;&amp;nbsp;&amp;nbsp;&amp;nbsp;&amp;nbsp;&amp;nbsp;&amp;nbsp;&amp;nbsp;&amp;nbsp;&amp;nbsp;&amp;nbsp;&amp;nbsp;&amp;nbsp;&amp;nbsp;&amp;nbsp;&amp;nbsp;&amp;nbsp;&amp;nbsp;&amp;nbsp;&amp;nbsp;&amp;nbsp;&amp;nbsp;&amp;nbsp;&amp;nbsp;&amp;nbsp;&amp;nbsp;&amp;nbsp;&amp;nbsp;&amp;nbsp;&amp;nbsp;&amp;nbsp;&amp;nbsp; &amp;nbsp;&lt;br&gt;+ severity: String&amp;nbsp;&amp;nbsp;&amp;nbsp;&amp;nbsp;&amp;nbsp;&amp;nbsp;&amp;nbsp;&amp;nbsp;&amp;nbsp;&amp;nbsp;&amp;nbsp;&amp;nbsp;&amp;nbsp;&amp;nbsp;&amp;nbsp;&amp;nbsp;&amp;nbsp;&amp;nbsp;&amp;nbsp;&amp;nbsp;&amp;nbsp;&amp;nbsp;&amp;nbsp;&amp;nbsp;&amp;nbsp;&amp;nbsp;&amp;nbsp;&amp;nbsp;&amp;nbsp;&amp;nbsp;&amp;nbsp;&amp;nbsp;&amp;nbsp;&amp;nbsp;&amp;nbsp;&amp;nbsp;&amp;nbsp;&amp;nbsp;&amp;nbsp;&amp;nbsp; &amp;nbsp;&lt;br&gt;+ safetyRelatedMessage: boolean&amp;nbsp;&amp;nbsp;&amp;nbsp;&amp;nbsp;&amp;nbsp;&amp;nbsp;&amp;nbsp;&amp;nbsp;&amp;nbsp;&amp;nbsp;&amp;nbsp;&amp;nbsp;&amp;nbsp;&amp;nbsp;&amp;nbsp;&amp;nbsp;&amp;nbsp;&amp;nbsp;&amp;nbsp;&amp;nbsp;&amp;nbsp;&amp;nbsp;&amp;nbsp;&amp;nbsp;&amp;nbsp;&amp;nbsp;&amp;nbsp; &amp;nbsp;&lt;br&gt;+ sourceName: String&amp;nbsp;&amp;nbsp;&amp;nbsp;&amp;nbsp;&amp;nbsp;&amp;nbsp;&amp;nbsp;&amp;nbsp;&amp;nbsp;&amp;nbsp;&amp;nbsp;&amp;nbsp;&amp;nbsp;&amp;nbsp;&amp;nbsp;&amp;nbsp;&amp;nbsp;&amp;nbsp;&amp;nbsp;&amp;nbsp;&amp;nbsp;&amp;nbsp;&amp;nbsp;&amp;nbsp;&amp;nbsp;&amp;nbsp;&amp;nbsp;&amp;nbsp;&amp;nbsp;&amp;nbsp;&amp;nbsp;&amp;nbsp;&amp;nbsp;&amp;nbsp;&amp;nbsp;&amp;nbsp;&amp;nbsp;&amp;nbsp; &amp;nbsp;&lt;br&gt;+ generalPublicComment: String&amp;nbsp;&amp;nbsp;&amp;nbsp;&amp;nbsp;&amp;nbsp;&amp;nbsp;&amp;nbsp;&amp;nbsp;&amp;nbsp;&amp;nbsp;&amp;nbsp;&amp;nbsp;&amp;nbsp;&amp;nbsp;&amp;nbsp;&amp;nbsp;&amp;nbsp;&amp;nbsp;&amp;nbsp;&amp;nbsp;&amp;nbsp;&amp;nbsp;&amp;nbsp;&amp;nbsp;&amp;nbsp;&amp;nbsp;&amp;nbsp;&amp;nbsp; &amp;nbsp;&lt;br&gt;+ situationId: String&amp;nbsp;&amp;nbsp;&amp;nbsp;&amp;nbsp;&amp;nbsp;&amp;nbsp;&amp;nbsp;&amp;nbsp;&amp;nbsp;&amp;nbsp;&amp;nbsp;&amp;nbsp;&amp;nbsp;&amp;nbsp;&amp;nbsp;&amp;nbsp;&amp;nbsp;&amp;nbsp;&amp;nbsp;&amp;nbsp;&amp;nbsp;&amp;nbsp;&amp;nbsp;&amp;nbsp;&amp;nbsp;&amp;nbsp;&amp;nbsp;&amp;nbsp;&amp;nbsp;&amp;nbsp;&amp;nbsp;&amp;nbsp;&amp;nbsp;&amp;nbsp;&amp;nbsp;&amp;nbsp;&amp;nbsp; &amp;nbsp;&lt;br&gt;+ location: Location&amp;nbsp;&amp;nbsp;&amp;nbsp;&amp;nbsp;&amp;nbsp;&amp;nbsp;&amp;nbsp;&amp;nbsp;&amp;nbsp;&amp;nbsp;&amp;nbsp;&amp;nbsp;&amp;nbsp;&amp;nbsp;&amp;nbsp;&amp;nbsp;&amp;nbsp;&amp;nbsp;&amp;nbsp;&amp;nbsp;&amp;nbsp;&amp;nbsp;&amp;nbsp;&amp;nbsp;&amp;nbsp;&amp;nbsp;&amp;nbsp;&amp;nbsp;&amp;nbsp;&amp;nbsp;&amp;nbsp;&amp;nbsp;&amp;nbsp;&amp;nbsp;&amp;nbsp;&amp;nbsp;&amp;nbsp;&amp;nbsp; &amp;nbsp;&lt;br&gt;+ temporaryLimitText: List&amp;lt;String&amp;gt;&amp;nbsp;&amp;nbsp; " style="text;strokeColor=none;fillColor=none;align=left;verticalAlign=top;spacingLeft=4;spacingRight=4;overflow=hidden;rotatable=0;points=[[0,0.5],[1,0.5]];portConstraint=eastwest;whiteSpace=wrap;html=1;" parent="Z3DLxL-PWDboXXJ2maVI-37" vertex="1">
          <mxGeometry y="26" width="350" height="248" as="geometry" />
        </mxCell>
        <mxCell id="Z3DLxL-PWDboXXJ2maVI-39" value="" style="line;strokeWidth=1;fillColor=none;align=left;verticalAlign=middle;spacingTop=-1;spacingLeft=3;spacingRight=3;rotatable=0;labelPosition=right;points=[];portConstraint=eastwest;strokeColor=inherit;" parent="Z3DLxL-PWDboXXJ2maVI-37" vertex="1">
          <mxGeometry y="274" width="350" height="8" as="geometry" />
        </mxCell>
        <mxCell id="Z3DLxL-PWDboXXJ2maVI-40" value="- getId(): String&amp;nbsp;&amp;nbsp;&amp;nbsp;&amp;nbsp;&amp;nbsp;&amp;nbsp;&amp;nbsp;&amp;nbsp;&amp;nbsp;&amp;nbsp;&amp;nbsp;&amp;nbsp;&amp;nbsp;&amp;nbsp;&amp;nbsp;&amp;nbsp;&amp;nbsp;&amp;nbsp;&amp;nbsp;&amp;nbsp;&amp;nbsp;&amp;nbsp;&amp;nbsp;&amp;nbsp;&amp;nbsp;&amp;nbsp;&amp;nbsp;&amp;nbsp;&amp;nbsp;&amp;nbsp;&amp;nbsp;&amp;nbsp;&amp;nbsp;&amp;nbsp;&amp;nbsp;&amp;nbsp;&amp;nbsp;&amp;nbsp;&amp;nbsp;&amp;nbsp;&amp;nbsp; &amp;nbsp;&lt;br&gt;- setId(id: String): void&amp;nbsp;&amp;nbsp;&amp;nbsp;&amp;nbsp;&amp;nbsp;&amp;nbsp;&amp;nbsp;&amp;nbsp;&amp;nbsp;&amp;nbsp;&amp;nbsp;&amp;nbsp;&amp;nbsp;&amp;nbsp;&amp;nbsp;&amp;nbsp;&amp;nbsp;&amp;nbsp;&amp;nbsp;&amp;nbsp;&amp;nbsp;&amp;nbsp;&amp;nbsp;&amp;nbsp;&amp;nbsp;&amp;nbsp;&amp;nbsp;&amp;nbsp;&amp;nbsp;&amp;nbsp;&amp;nbsp;&amp;nbsp;&amp;nbsp; &amp;nbsp;&lt;br&gt;- getVersion(): String&amp;nbsp;&amp;nbsp;&amp;nbsp;&amp;nbsp;&amp;nbsp;&amp;nbsp;&amp;nbsp;&amp;nbsp;&amp;nbsp;&amp;nbsp;&amp;nbsp;&amp;nbsp;&amp;nbsp;&amp;nbsp;&amp;nbsp;&amp;nbsp;&amp;nbsp;&amp;nbsp;&amp;nbsp;&amp;nbsp;&amp;nbsp;&amp;nbsp;&amp;nbsp;&amp;nbsp;&amp;nbsp;&amp;nbsp;&amp;nbsp;&amp;nbsp;&amp;nbsp;&amp;nbsp;&amp;nbsp;&amp;nbsp;&amp;nbsp;&amp;nbsp;&amp;nbsp;&amp;nbsp; &amp;nbsp;&lt;br&gt;- setVersion(version: String): void&amp;nbsp;&amp;nbsp;&amp;nbsp;&amp;nbsp;&amp;nbsp;&amp;nbsp;&amp;nbsp;&amp;nbsp;&amp;nbsp;&amp;nbsp;&amp;nbsp;&amp;nbsp;&amp;nbsp;&amp;nbsp;&amp;nbsp;&amp;nbsp;&amp;nbsp;&amp;nbsp;&amp;nbsp;&amp;nbsp;&amp;nbsp;&amp;nbsp;&amp;nbsp; &amp;nbsp;&lt;br&gt;- getCreationTime(): String&amp;nbsp;&amp;nbsp;&amp;nbsp;&amp;nbsp;&amp;nbsp;&amp;nbsp;&amp;nbsp;&amp;nbsp;&amp;nbsp;&amp;nbsp;&amp;nbsp;&amp;nbsp;&amp;nbsp;&amp;nbsp;&amp;nbsp;&amp;nbsp;&amp;nbsp;&amp;nbsp;&amp;nbsp;&amp;nbsp;&amp;nbsp;&amp;nbsp;&amp;nbsp;&amp;nbsp;&amp;nbsp;&amp;nbsp;&amp;nbsp;&amp;nbsp;&amp;nbsp;&amp;nbsp;&amp;nbsp; &amp;nbsp;&lt;br&gt;- setCreationTime(time: String): void&amp;nbsp;&amp;nbsp;&amp;nbsp;&amp;nbsp;&amp;nbsp;&amp;nbsp;&amp;nbsp;&amp;nbsp;&amp;nbsp;&amp;nbsp;&amp;nbsp;&amp;nbsp;&amp;nbsp;&amp;nbsp;&amp;nbsp;&amp;nbsp;&amp;nbsp;&amp;nbsp;&amp;nbsp;&amp;nbsp;&amp;nbsp; &amp;nbsp;&lt;br&gt;- getVersionTime(): String&amp;nbsp;&amp;nbsp;&amp;nbsp;&amp;nbsp;&amp;nbsp;&amp;nbsp;&amp;nbsp;&amp;nbsp;&amp;nbsp;&amp;nbsp;&amp;nbsp;&amp;nbsp;&amp;nbsp;&amp;nbsp;&amp;nbsp;&amp;nbsp;&amp;nbsp;&amp;nbsp;&amp;nbsp;&amp;nbsp;&amp;nbsp;&amp;nbsp;&amp;nbsp;&amp;nbsp;&amp;nbsp;&amp;nbsp;&amp;nbsp;&amp;nbsp;&amp;nbsp;&amp;nbsp;&amp;nbsp;&amp;nbsp; &amp;nbsp;&lt;br&gt;- setVersionTime(time: String): void&amp;nbsp;&amp;nbsp;&amp;nbsp;&amp;nbsp;&amp;nbsp;&amp;nbsp;&amp;nbsp;&amp;nbsp;&amp;nbsp;&amp;nbsp;&amp;nbsp;&amp;nbsp;&amp;nbsp;&amp;nbsp;&amp;nbsp;&amp;nbsp;&amp;nbsp;&amp;nbsp;&amp;nbsp;&amp;nbsp;&amp;nbsp;&amp;nbsp; &amp;nbsp;&lt;br&gt;- getStartTime(): String&amp;nbsp;&amp;nbsp;&amp;nbsp;&amp;nbsp;&amp;nbsp;&amp;nbsp;&amp;nbsp;&amp;nbsp;&amp;nbsp;&amp;nbsp;&amp;nbsp;&amp;nbsp;&amp;nbsp;&amp;nbsp;&amp;nbsp;&amp;nbsp;&amp;nbsp;&amp;nbsp;&amp;nbsp;&amp;nbsp;&amp;nbsp;&amp;nbsp;&amp;nbsp;&amp;nbsp;&amp;nbsp;&amp;nbsp;&amp;nbsp;&amp;nbsp;&amp;nbsp;&amp;nbsp;&amp;nbsp;&amp;nbsp;&amp;nbsp;&amp;nbsp; &amp;nbsp;&lt;br&gt;- setStartTime(time: String): void&amp;nbsp;&amp;nbsp;&amp;nbsp;&amp;nbsp;&amp;nbsp;&amp;nbsp;&amp;nbsp;&amp;nbsp;&amp;nbsp;&amp;nbsp;&amp;nbsp;&amp;nbsp;&amp;nbsp;&amp;nbsp;&amp;nbsp;&amp;nbsp;&amp;nbsp;&amp;nbsp;&amp;nbsp;&amp;nbsp;&amp;nbsp;&amp;nbsp;&amp;nbsp;&amp;nbsp; &amp;nbsp;&lt;br&gt;- getEndTime(): String&amp;nbsp;&amp;nbsp;&amp;nbsp;&amp;nbsp;&amp;nbsp;&amp;nbsp;&amp;nbsp;&amp;nbsp;&amp;nbsp;&amp;nbsp;&amp;nbsp;&amp;nbsp;&amp;nbsp;&amp;nbsp;&amp;nbsp;&amp;nbsp;&amp;nbsp;&amp;nbsp;&amp;nbsp;&amp;nbsp;&amp;nbsp;&amp;nbsp;&amp;nbsp;&amp;nbsp;&amp;nbsp;&amp;nbsp;&amp;nbsp;&amp;nbsp;&amp;nbsp;&amp;nbsp;&amp;nbsp;&amp;nbsp;&amp;nbsp;&amp;nbsp;&amp;nbsp;&amp;nbsp; &amp;nbsp;&lt;br&gt;- setEndTime(time: String): void&amp;nbsp;&amp;nbsp;&amp;nbsp;&amp;nbsp;&amp;nbsp;&amp;nbsp;&amp;nbsp;&amp;nbsp;&amp;nbsp;&amp;nbsp;&amp;nbsp;&amp;nbsp;&amp;nbsp;&amp;nbsp;&amp;nbsp;&amp;nbsp;&amp;nbsp;&amp;nbsp;&amp;nbsp;&amp;nbsp;&amp;nbsp;&amp;nbsp;&amp;nbsp;&amp;nbsp;&amp;nbsp;&amp;nbsp; &amp;nbsp;&lt;br&gt;- getType(): Type&amp;nbsp;&amp;nbsp;&amp;nbsp;&amp;nbsp;&amp;nbsp;&amp;nbsp;&amp;nbsp;&amp;nbsp;&amp;nbsp;&amp;nbsp;&amp;nbsp;&amp;nbsp;&amp;nbsp;&amp;nbsp;&amp;nbsp;&amp;nbsp;&amp;nbsp;&amp;nbsp;&amp;nbsp;&amp;nbsp;&amp;nbsp;&amp;nbsp;&amp;nbsp;&amp;nbsp;&amp;nbsp;&amp;nbsp;&amp;nbsp;&amp;nbsp;&amp;nbsp;&amp;nbsp;&amp;nbsp;&amp;nbsp;&amp;nbsp;&amp;nbsp;&amp;nbsp;&amp;nbsp;&amp;nbsp;&amp;nbsp;&amp;nbsp;&amp;nbsp; &amp;nbsp;&lt;br&gt;- setType(type: Type): void&amp;nbsp;&amp;nbsp;&amp;nbsp;&amp;nbsp;&amp;nbsp;&amp;nbsp;&amp;nbsp;&amp;nbsp;&amp;nbsp;&amp;nbsp;&amp;nbsp;&amp;nbsp;&amp;nbsp;&amp;nbsp;&amp;nbsp;&amp;nbsp;&amp;nbsp;&amp;nbsp;&amp;nbsp;&amp;nbsp;&amp;nbsp;&amp;nbsp;&amp;nbsp;&amp;nbsp;&amp;nbsp;&amp;nbsp;&amp;nbsp;&amp;nbsp;&amp;nbsp;&amp;nbsp;&amp;nbsp; &amp;nbsp;&lt;br&gt;- getDetailedType(): Type&amp;nbsp;&amp;nbsp;&amp;nbsp;&amp;nbsp;&amp;nbsp;&amp;nbsp;&amp;nbsp;&amp;nbsp;&amp;nbsp;&amp;nbsp;&amp;nbsp;&amp;nbsp;&amp;nbsp;&amp;nbsp;&amp;nbsp;&amp;nbsp;&amp;nbsp;&amp;nbsp;&amp;nbsp;&amp;nbsp;&amp;nbsp;&amp;nbsp;&amp;nbsp;&amp;nbsp;&amp;nbsp;&amp;nbsp;&amp;nbsp;&amp;nbsp;&amp;nbsp;&amp;nbsp;&amp;nbsp;&amp;nbsp;&amp;nbsp; &amp;nbsp;&lt;br&gt;- setDetailedType(detailedType: Type): void&amp;nbsp;&amp;nbsp;&amp;nbsp;&amp;nbsp;&amp;nbsp;&amp;nbsp;&amp;nbsp;&amp;nbsp;&amp;nbsp;&amp;nbsp;&amp;nbsp;&amp;nbsp;&amp;nbsp;&amp;nbsp; &amp;nbsp;&lt;br&gt;- getDetailedTypeText(): String&amp;nbsp;&amp;nbsp;&amp;nbsp;&amp;nbsp;&amp;nbsp;&amp;nbsp;&amp;nbsp;&amp;nbsp;&amp;nbsp;&amp;nbsp;&amp;nbsp;&amp;nbsp;&amp;nbsp;&amp;nbsp;&amp;nbsp;&amp;nbsp;&amp;nbsp;&amp;nbsp;&amp;nbsp;&amp;nbsp;&amp;nbsp;&amp;nbsp;&amp;nbsp;&amp;nbsp;&amp;nbsp;&amp;nbsp;&amp;nbsp; &amp;nbsp;&lt;br&gt;- setDetailedTypeText(text: String): void&amp;nbsp;&amp;nbsp;&amp;nbsp;&amp;nbsp;&amp;nbsp;&amp;nbsp;&amp;nbsp;&amp;nbsp;&amp;nbsp;&amp;nbsp;&amp;nbsp;&amp;nbsp;&amp;nbsp;&amp;nbsp;&amp;nbsp;&amp;nbsp; &amp;nbsp;&lt;br&gt;- getSeverity(): String&amp;nbsp;&amp;nbsp;&amp;nbsp;&amp;nbsp;&amp;nbsp;&amp;nbsp;&amp;nbsp;&amp;nbsp;&amp;nbsp;&amp;nbsp;&amp;nbsp;&amp;nbsp;&amp;nbsp;&amp;nbsp;&amp;nbsp;&amp;nbsp;&amp;nbsp;&amp;nbsp;&amp;nbsp;&amp;nbsp;&amp;nbsp;&amp;nbsp;&amp;nbsp;&amp;nbsp;&amp;nbsp;&amp;nbsp;&amp;nbsp;&amp;nbsp;&amp;nbsp;&amp;nbsp;&amp;nbsp;&amp;nbsp;&amp;nbsp;&amp;nbsp;&amp;nbsp; &amp;nbsp;&lt;br&gt;- setSeverity(severity: String): void&amp;nbsp;&amp;nbsp;&amp;nbsp;&amp;nbsp;&amp;nbsp;&amp;nbsp;&amp;nbsp;&amp;nbsp;&amp;nbsp;&amp;nbsp;&amp;nbsp;&amp;nbsp;&amp;nbsp;&amp;nbsp;&amp;nbsp;&amp;nbsp;&amp;nbsp;&amp;nbsp;&amp;nbsp;&amp;nbsp;&amp;nbsp; &amp;nbsp;&lt;br&gt;- isSafetyRelatedMessage(): boolean&amp;nbsp;&amp;nbsp;&amp;nbsp;&amp;nbsp;&amp;nbsp;&amp;nbsp;&amp;nbsp;&amp;nbsp;&amp;nbsp;&amp;nbsp;&amp;nbsp;&amp;nbsp;&amp;nbsp;&amp;nbsp;&amp;nbsp;&amp;nbsp;&amp;nbsp;&amp;nbsp;&amp;nbsp;&amp;nbsp;&amp;nbsp;&amp;nbsp;&amp;nbsp; &amp;nbsp;&lt;br&gt;- setSafetyRelatedMessage(safetyRelated: boolean): void&amp;nbsp;&amp;nbsp;&amp;nbsp; &amp;nbsp;&lt;br&gt;- getSourceName(): String&amp;nbsp;&amp;nbsp;&amp;nbsp;&amp;nbsp;&amp;nbsp;&amp;nbsp;&amp;nbsp;&amp;nbsp;&amp;nbsp;&amp;nbsp;&amp;nbsp;&amp;nbsp;&amp;nbsp;&amp;nbsp;&amp;nbsp;&amp;nbsp;&amp;nbsp;&amp;nbsp;&amp;nbsp;&amp;nbsp;&amp;nbsp;&amp;nbsp;&amp;nbsp;&amp;nbsp;&amp;nbsp;&amp;nbsp;&amp;nbsp;&amp;nbsp;&amp;nbsp;&amp;nbsp;&amp;nbsp;&amp;nbsp;&amp;nbsp; &amp;nbsp;&lt;br&gt;- setSourceName(name: String): void&amp;nbsp;&amp;nbsp;&amp;nbsp;&amp;nbsp;&amp;nbsp;&amp;nbsp;&amp;nbsp;&amp;nbsp;&amp;nbsp;&amp;nbsp;&amp;nbsp;&amp;nbsp;&amp;nbsp;&amp;nbsp;&amp;nbsp;&amp;nbsp;&amp;nbsp;&amp;nbsp;&amp;nbsp;&amp;nbsp;&amp;nbsp;&amp;nbsp;&amp;nbsp; &amp;nbsp;&lt;br&gt;- getGeneralPublicComment(): String&amp;nbsp;&amp;nbsp;&amp;nbsp;&amp;nbsp;&amp;nbsp;&amp;nbsp;&amp;nbsp;&amp;nbsp;&amp;nbsp;&amp;nbsp;&amp;nbsp;&amp;nbsp;&amp;nbsp;&amp;nbsp;&amp;nbsp;&amp;nbsp;&amp;nbsp;&amp;nbsp;&amp;nbsp;&amp;nbsp;&amp;nbsp;&amp;nbsp;&amp;nbsp; &amp;nbsp;&lt;br&gt;- setGeneralPublicComment(comment: String): void&amp;nbsp;&amp;nbsp;&amp;nbsp;&amp;nbsp;&amp;nbsp;&amp;nbsp;&amp;nbsp;&amp;nbsp;&amp;nbsp; &amp;nbsp;&lt;br&gt;- getSituationId(): String&amp;nbsp;&amp;nbsp;&amp;nbsp;&amp;nbsp;&amp;nbsp;&amp;nbsp;&amp;nbsp;&amp;nbsp;&amp;nbsp;&amp;nbsp;&amp;nbsp;&amp;nbsp;&amp;nbsp;&amp;nbsp;&amp;nbsp;&amp;nbsp;&amp;nbsp;&amp;nbsp;&amp;nbsp;&amp;nbsp;&amp;nbsp;&amp;nbsp;&amp;nbsp;&amp;nbsp;&amp;nbsp;&amp;nbsp;&amp;nbsp;&amp;nbsp;&amp;nbsp;&amp;nbsp;&amp;nbsp;&amp;nbsp; &amp;nbsp;&lt;br&gt;- setSituationId(id: String): void&amp;nbsp;&amp;nbsp;&amp;nbsp;&amp;nbsp;&amp;nbsp;&amp;nbsp;&amp;nbsp;&amp;nbsp;&amp;nbsp;&amp;nbsp;&amp;nbsp;&amp;nbsp;&amp;nbsp;&amp;nbsp;&amp;nbsp;&amp;nbsp;&amp;nbsp;&amp;nbsp;&amp;nbsp;&amp;nbsp;&amp;nbsp;&amp;nbsp;&amp;nbsp; &amp;nbsp;&lt;br&gt;- getLocation(): Location&amp;nbsp;&amp;nbsp;&amp;nbsp;&amp;nbsp;&amp;nbsp;&amp;nbsp;&amp;nbsp;&amp;nbsp;&amp;nbsp;&amp;nbsp;&amp;nbsp;&amp;nbsp;&amp;nbsp;&amp;nbsp;&amp;nbsp;&amp;nbsp;&amp;nbsp;&amp;nbsp;&amp;nbsp;&amp;nbsp;&amp;nbsp;&amp;nbsp;&amp;nbsp;&amp;nbsp;&amp;nbsp;&amp;nbsp;&amp;nbsp;&amp;nbsp;&amp;nbsp;&amp;nbsp;&amp;nbsp;&amp;nbsp;&amp;nbsp; &amp;nbsp;&lt;br&gt;- setLocation(location: Location): void&amp;nbsp;&amp;nbsp;&amp;nbsp;&amp;nbsp;&amp;nbsp;&amp;nbsp;&amp;nbsp;&amp;nbsp;&amp;nbsp;&amp;nbsp;&amp;nbsp;&amp;nbsp;&amp;nbsp;&amp;nbsp;&amp;nbsp;&amp;nbsp;&amp;nbsp;&amp;nbsp;&amp;nbsp; &amp;nbsp;&lt;br&gt;- getTemporaryLimitText(): List&amp;lt;String&amp;gt;&amp;nbsp;&amp;nbsp;&amp;nbsp;&amp;nbsp;&amp;nbsp;&amp;nbsp;&amp;nbsp;&amp;nbsp;&amp;nbsp;&amp;nbsp;&amp;nbsp;&amp;nbsp;&amp;nbsp;&amp;nbsp;&amp;nbsp;&amp;nbsp;&amp;nbsp;&amp;nbsp; &amp;nbsp;&lt;br&gt;- setTemporaryLimitText(texts: List&amp;lt;String&amp;gt;): void&amp;nbsp;&amp;nbsp;&amp;nbsp;&amp;nbsp;&amp;nbsp;&amp;nbsp;&amp;nbsp; &amp;nbsp;&lt;br&gt;- toString(): String&amp;nbsp;&amp;nbsp;&amp;nbsp; " style="text;strokeColor=none;fillColor=none;align=left;verticalAlign=top;spacingLeft=4;spacingRight=4;overflow=hidden;rotatable=0;points=[[0,0.5],[1,0.5]];portConstraint=eastwest;whiteSpace=wrap;html=1;" parent="Z3DLxL-PWDboXXJ2maVI-37" vertex="1">
          <mxGeometry y="282" width="350" height="492" as="geometry" />
        </mxCell>
        <mxCell id="Z3DLxL-PWDboXXJ2maVI-45" value="Type          " style="swimlane;fontStyle=1;align=center;verticalAlign=top;childLayout=stackLayout;horizontal=1;startSize=26;horizontalStack=0;resizeParent=1;resizeParentMax=0;resizeLast=0;collapsible=1;marginBottom=0;whiteSpace=wrap;html=1;" parent="Z3DLxL-PWDboXXJ2maVI-108" vertex="1">
          <mxGeometry x="10" y="111" width="290" height="110" as="geometry" />
        </mxCell>
        <mxCell id="Z3DLxL-PWDboXXJ2maVI-46" value="+ value: &lt;span class=&quot;hljs-type&quot;&gt;String&lt;/span&gt;" style="text;strokeColor=none;fillColor=none;align=left;verticalAlign=top;spacingLeft=4;spacingRight=4;overflow=hidden;rotatable=0;points=[[0,0.5],[1,0.5]];portConstraint=eastwest;whiteSpace=wrap;html=1;" parent="Z3DLxL-PWDboXXJ2maVI-45" vertex="1">
          <mxGeometry y="26" width="290" height="24" as="geometry" />
        </mxCell>
        <mxCell id="Z3DLxL-PWDboXXJ2maVI-47" value="" style="line;strokeWidth=1;fillColor=none;align=left;verticalAlign=middle;spacingTop=-1;spacingLeft=3;spacingRight=3;rotatable=0;labelPosition=right;points=[];portConstraint=eastwest;strokeColor=inherit;" parent="Z3DLxL-PWDboXXJ2maVI-45" vertex="1">
          <mxGeometry y="50" width="290" height="8" as="geometry" />
        </mxCell>
        <mxCell id="Z3DLxL-PWDboXXJ2maVI-48" value="&lt;div&gt;-&amp;nbsp;&lt;span class=&quot;hljs-built_in&quot;&gt;getValue&lt;/span&gt;(): &lt;span class=&quot;hljs-type&quot;&gt;String&lt;/span&gt; &lt;br&gt;-&lt;span class=&quot;hljs-variable&quot;&gt; &lt;/span&gt;&lt;span class=&quot;hljs-built_in&quot;&gt;setValue&lt;/span&gt;(value: &lt;span class=&quot;hljs-type&quot;&gt;String&lt;/span&gt;): &lt;span class=&quot;hljs-type&quot;&gt;void&lt;/span&gt;&lt;/div&gt;&lt;div&gt;- &lt;span class=&quot;hljs-built_in&quot;&gt;toString&lt;/span&gt;(): &lt;span class=&quot;hljs-type&quot;&gt;String&lt;/span&gt;&lt;/div&gt;" style="text;strokeColor=none;fillColor=none;align=left;verticalAlign=top;spacingLeft=4;spacingRight=4;overflow=hidden;rotatable=0;points=[[0,0.5],[1,0.5]];portConstraint=eastwest;whiteSpace=wrap;html=1;" parent="Z3DLxL-PWDboXXJ2maVI-45" vertex="1">
          <mxGeometry y="58" width="290" height="52" as="geometry" />
        </mxCell>
        <mxCell id="Z3DLxL-PWDboXXJ2maVI-17" value="GmlPolygon         " style="swimlane;fontStyle=1;align=center;verticalAlign=top;childLayout=stackLayout;horizontal=1;startSize=26;horizontalStack=0;resizeParent=1;resizeParentMax=0;resizeLast=0;collapsible=1;marginBottom=0;whiteSpace=wrap;html=1;" parent="Z3DLxL-PWDboXXJ2maVI-108" vertex="1">
          <mxGeometry x="410" y="200" width="290" height="110" as="geometry" />
        </mxCell>
        <mxCell id="Z3DLxL-PWDboXXJ2maVI-18" value="+ exterior: Exterior" style="text;strokeColor=none;fillColor=none;align=left;verticalAlign=top;spacingLeft=4;spacingRight=4;overflow=hidden;rotatable=0;points=[[0,0.5],[1,0.5]];portConstraint=eastwest;whiteSpace=wrap;html=1;" parent="Z3DLxL-PWDboXXJ2maVI-17" vertex="1">
          <mxGeometry y="26" width="290" height="24" as="geometry" />
        </mxCell>
        <mxCell id="Z3DLxL-PWDboXXJ2maVI-19" value="" style="line;strokeWidth=1;fillColor=none;align=left;verticalAlign=middle;spacingTop=-1;spacingLeft=3;spacingRight=3;rotatable=0;labelPosition=right;points=[];portConstraint=eastwest;strokeColor=inherit;" parent="Z3DLxL-PWDboXXJ2maVI-17" vertex="1">
          <mxGeometry y="50" width="290" height="8" as="geometry" />
        </mxCell>
        <mxCell id="Z3DLxL-PWDboXXJ2maVI-20" value="&lt;div&gt;- getExterior(): Exterior &lt;br&gt;-&lt;span class=&quot;hljs-variable&quot;&gt; &lt;/span&gt;setExterior(exterior: Exterior): void &lt;/div&gt;&lt;div&gt;- &lt;span class=&quot;hljs-built_in&quot;&gt;toString&lt;/span&gt;(): &lt;span class=&quot;hljs-type&quot;&gt;String&lt;/span&gt;&lt;/div&gt;" style="text;strokeColor=none;fillColor=none;align=left;verticalAlign=top;spacingLeft=4;spacingRight=4;overflow=hidden;rotatable=0;points=[[0,0.5],[1,0.5]];portConstraint=eastwest;whiteSpace=wrap;html=1;" parent="Z3DLxL-PWDboXXJ2maVI-17" vertex="1">
          <mxGeometry y="58" width="290" height="52" as="geometry" />
        </mxCell>
        <mxCell id="Z3DLxL-PWDboXXJ2maVI-1" value="Area" style="swimlane;fontStyle=1;align=center;verticalAlign=top;childLayout=stackLayout;horizontal=1;startSize=26;horizontalStack=0;resizeParent=1;resizeParentMax=0;resizeLast=0;collapsible=1;marginBottom=0;whiteSpace=wrap;html=1;" parent="Z3DLxL-PWDboXXJ2maVI-108" vertex="1">
          <mxGeometry x="410" y="320" width="290" height="160" as="geometry" />
        </mxCell>
        <mxCell id="Z3DLxL-PWDboXXJ2maVI-2" value="&lt;div&gt;&lt;span class=&quot;hljs-variable&quot;&gt;+ &lt;/span&gt;&lt;span class=&quot;hljs-variable&quot;&gt;gmlAreaName&lt;/span&gt;&lt;span class=&quot;hljs-operator&quot;&gt;:&lt;/span&gt; &lt;span class=&quot;hljs-built_in&quot;&gt;String&lt;/span&gt;&lt;/div&gt;&lt;div&gt;+ &lt;span class=&quot;hljs-variable&quot;&gt;gmlPolygon&lt;/span&gt;&lt;span class=&quot;hljs-operator&quot;&gt;:&lt;/span&gt; &lt;span class=&quot;hljs-built_in&quot;&gt;List&lt;/span&gt;&lt;span class=&quot;hljs-operator&quot;&gt;&amp;lt;&lt;/span&gt;&lt;span class=&quot;hljs-variable&quot;&gt;GmlPolygon&lt;/span&gt;&lt;span class=&quot;hljs-operator&quot;&gt;&amp;gt;&lt;/span&gt;&lt;/div&gt;" style="text;strokeColor=none;fillColor=none;align=left;verticalAlign=top;spacingLeft=4;spacingRight=4;overflow=hidden;rotatable=0;points=[[0,0.5],[1,0.5]];portConstraint=eastwest;whiteSpace=wrap;html=1;" parent="Z3DLxL-PWDboXXJ2maVI-1" vertex="1">
          <mxGeometry y="26" width="290" height="44" as="geometry" />
        </mxCell>
        <mxCell id="Z3DLxL-PWDboXXJ2maVI-3" value="" style="line;strokeWidth=1;fillColor=none;align=left;verticalAlign=middle;spacingTop=-1;spacingLeft=3;spacingRight=3;rotatable=0;labelPosition=right;points=[];portConstraint=eastwest;strokeColor=inherit;" parent="Z3DLxL-PWDboXXJ2maVI-1" vertex="1">
          <mxGeometry y="70" width="290" height="8" as="geometry" />
        </mxCell>
        <mxCell id="Z3DLxL-PWDboXXJ2maVI-4" value="&lt;div&gt;- &lt;span class=&quot;hljs-variable&quot;&gt;getGmlAreaName&lt;/span&gt;&lt;span class=&quot;hljs-punctuation&quot;&gt;(&lt;/span&gt;&lt;span class=&quot;hljs-punctuation&quot;&gt;)&lt;/span&gt;&lt;span class=&quot;hljs-operator&quot;&gt;:&lt;/span&gt; &lt;span class=&quot;hljs-built_in&quot;&gt;String&lt;/span&gt; &lt;br&gt;-&lt;span class=&quot;hljs-variable&quot;&gt; &lt;/span&gt;&lt;span class=&quot;hljs-variable&quot;&gt;setGmlAreaName&lt;/span&gt;&lt;span class=&quot;hljs-punctuation&quot;&gt;(&lt;/span&gt;&lt;span class=&quot;hljs-variable&quot;&gt;name&lt;/span&gt;&lt;span class=&quot;hljs-operator&quot;&gt;:&lt;/span&gt; &lt;span class=&quot;hljs-built_in&quot;&gt;String&lt;/span&gt;&lt;span class=&quot;hljs-punctuation&quot;&gt;)&lt;/span&gt;&lt;span class=&quot;hljs-operator&quot;&gt;:&lt;/span&gt; &lt;span class=&quot;hljs-variable&quot;&gt;void&lt;/span&gt;&amp;nbsp;&lt;/div&gt;&lt;div&gt;- &lt;span class=&quot;hljs-variable&quot;&gt;getGmlPolygon&lt;/span&gt;&lt;span class=&quot;hljs-punctuation&quot;&gt;(&lt;/span&gt;&lt;span class=&quot;hljs-punctuation&quot;&gt;)&lt;/span&gt;&lt;span class=&quot;hljs-operator&quot;&gt;:&lt;/span&gt; &lt;span class=&quot;hljs-built_in&quot;&gt;List&lt;/span&gt;&lt;span class=&quot;hljs-operator&quot;&gt;&amp;lt;&lt;/span&gt;&lt;span class=&quot;hljs-variable&quot;&gt;GmlPolygon&lt;/span&gt;&lt;span class=&quot;hljs-operator&quot;&gt;&amp;gt;&lt;/span&gt;&lt;br&gt;&lt;/div&gt;&lt;div&gt;- &lt;span class=&quot;hljs-variable&quot;&gt;setGmlPolygon&lt;/span&gt;&lt;span class=&quot;hljs-punctuation&quot;&gt;(&lt;/span&gt;&lt;span class=&quot;hljs-variable&quot;&gt;polygon&lt;/span&gt;&lt;span class=&quot;hljs-operator&quot;&gt;:&lt;/span&gt; &lt;span class=&quot;hljs-built_in&quot;&gt;List&lt;/span&gt;&lt;span class=&quot;hljs-operator&quot;&gt;&amp;lt;&lt;/span&gt;&lt;span class=&quot;hljs-variable&quot;&gt;GmlPolygon&lt;/span&gt;&lt;span class=&quot;hljs-operator&quot;&gt;&amp;gt;&lt;/span&gt;&lt;span class=&quot;hljs-punctuation&quot;&gt;)&lt;/span&gt;&lt;span class=&quot;hljs-operator&quot;&gt;:&lt;/span&gt; &lt;span class=&quot;hljs-variable&quot;&gt;void&lt;/span&gt;&amp;nbsp; &lt;br&gt;- &lt;span class=&quot;hljs-variable&quot;&gt;toString&lt;/span&gt;&lt;span class=&quot;hljs-punctuation&quot;&gt;(&lt;/span&gt;&lt;span class=&quot;hljs-punctuation&quot;&gt;)&lt;/span&gt;&lt;span class=&quot;hljs-operator&quot;&gt;:&lt;/span&gt; &lt;span class=&quot;hljs-built_in&quot;&gt;String&lt;/span&gt;     &lt;/div&gt;" style="text;strokeColor=none;fillColor=none;align=left;verticalAlign=top;spacingLeft=4;spacingRight=4;overflow=hidden;rotatable=0;points=[[0,0.5],[1,0.5]];portConstraint=eastwest;whiteSpace=wrap;html=1;" parent="Z3DLxL-PWDboXXJ2maVI-1" vertex="1">
          <mxGeometry y="78" width="290" height="82" as="geometry" />
        </mxCell>
        <mxCell id="Z3DLxL-PWDboXXJ2maVI-9" value="DetailedType          " style="swimlane;fontStyle=1;align=center;verticalAlign=top;childLayout=stackLayout;horizontal=1;startSize=26;horizontalStack=0;resizeParent=1;resizeParentMax=0;resizeLast=0;collapsible=1;marginBottom=0;whiteSpace=wrap;html=1;" parent="Z3DLxL-PWDboXXJ2maVI-108" vertex="1">
          <mxGeometry x="410" y="490" width="290" height="110" as="geometry" />
        </mxCell>
        <mxCell id="Z3DLxL-PWDboXXJ2maVI-10" value="&lt;div&gt;&lt;span class=&quot;hljs-variable&quot;&gt;+ &lt;/span&gt;value: &lt;span class=&quot;hljs-type&quot;&gt;String&lt;/span&gt;&lt;/div&gt;" style="text;strokeColor=none;fillColor=none;align=left;verticalAlign=top;spacingLeft=4;spacingRight=4;overflow=hidden;rotatable=0;points=[[0,0.5],[1,0.5]];portConstraint=eastwest;whiteSpace=wrap;html=1;" parent="Z3DLxL-PWDboXXJ2maVI-9" vertex="1">
          <mxGeometry y="26" width="290" height="24" as="geometry" />
        </mxCell>
        <mxCell id="Z3DLxL-PWDboXXJ2maVI-11" value="" style="line;strokeWidth=1;fillColor=none;align=left;verticalAlign=middle;spacingTop=-1;spacingLeft=3;spacingRight=3;rotatable=0;labelPosition=right;points=[];portConstraint=eastwest;strokeColor=inherit;" parent="Z3DLxL-PWDboXXJ2maVI-9" vertex="1">
          <mxGeometry y="50" width="290" height="8" as="geometry" />
        </mxCell>
        <mxCell id="Z3DLxL-PWDboXXJ2maVI-12" value="&lt;div&gt;- &lt;span class=&quot;hljs-built_in&quot;&gt;getValue&lt;/span&gt;(): &lt;span class=&quot;hljs-type&quot;&gt;String&lt;/span&gt; &lt;br&gt;-&lt;span class=&quot;hljs-variable&quot;&gt; &lt;/span&gt;&lt;span class=&quot;hljs-built_in&quot;&gt;setValue&lt;/span&gt;(value: &lt;span class=&quot;hljs-type&quot;&gt;String&lt;/span&gt;): &lt;span class=&quot;hljs-type&quot;&gt;void&lt;/span&gt; &lt;/div&gt;&lt;div&gt;- &lt;span class=&quot;hljs-built_in&quot;&gt;toString&lt;/span&gt;(): &lt;span class=&quot;hljs-type&quot;&gt;String&lt;/span&gt;&lt;/div&gt;" style="text;strokeColor=none;fillColor=none;align=left;verticalAlign=top;spacingLeft=4;spacingRight=4;overflow=hidden;rotatable=0;points=[[0,0.5],[1,0.5]];portConstraint=eastwest;whiteSpace=wrap;html=1;" parent="Z3DLxL-PWDboXXJ2maVI-9" vertex="1">
          <mxGeometry y="58" width="290" height="52" as="geometry" />
        </mxCell>
        <mxCell id="Z3DLxL-PWDboXXJ2maVI-25" value="Location                      " style="swimlane;fontStyle=1;align=center;verticalAlign=top;childLayout=stackLayout;horizontal=1;startSize=26;horizontalStack=0;resizeParent=1;resizeParentMax=0;resizeLast=0;collapsible=1;marginBottom=0;whiteSpace=wrap;html=1;" parent="Z3DLxL-PWDboXXJ2maVI-108" vertex="1">
          <mxGeometry x="430" y="620" width="340" height="270" as="geometry" />
        </mxCell>
        <mxCell id="Z3DLxL-PWDboXXJ2maVI-26" value="&lt;div&gt;&lt;span class=&quot;hljs-variable&quot;&gt;+ &lt;/span&gt;locationDescriptor: &lt;span class=&quot;hljs-type&quot;&gt;String&lt;/span&gt;&lt;/div&gt;&lt;div&gt;&lt;span class=&quot;hljs-type&quot;&gt;+&lt;/span&gt; coordinatesForDisplay: CoordinatesForDisplay&lt;/div&gt;&lt;div&gt;+ area: Area&lt;br&gt;&lt;/div&gt;&lt;div&gt;+ line: Line&lt;/div&gt;" style="text;strokeColor=none;fillColor=none;align=left;verticalAlign=top;spacingLeft=4;spacingRight=4;overflow=hidden;rotatable=0;points=[[0,0.5],[1,0.5]];portConstraint=eastwest;whiteSpace=wrap;html=1;" parent="Z3DLxL-PWDboXXJ2maVI-25" vertex="1">
          <mxGeometry y="26" width="340" height="74" as="geometry" />
        </mxCell>
        <mxCell id="Z3DLxL-PWDboXXJ2maVI-27" value="" style="line;strokeWidth=1;fillColor=none;align=left;verticalAlign=middle;spacingTop=-1;spacingLeft=3;spacingRight=3;rotatable=0;labelPosition=right;points=[];portConstraint=eastwest;strokeColor=inherit;" parent="Z3DLxL-PWDboXXJ2maVI-25" vertex="1">
          <mxGeometry y="100" width="340" height="8" as="geometry" />
        </mxCell>
        <mxCell id="Z3DLxL-PWDboXXJ2maVI-28" value="&lt;div&gt;- &lt;span class=&quot;hljs-built_in&quot;&gt;getLocationDescriptor&lt;/span&gt;(): &lt;span class=&quot;hljs-type&quot;&gt;String&lt;/span&gt;&lt;/div&gt;&lt;div&gt;-&lt;span class=&quot;hljs-variable&quot;&gt; &lt;/span&gt;&lt;span class=&quot;hljs-built_in&quot;&gt;setLocationDescriptor&lt;/span&gt;(descriptor: &lt;span class=&quot;hljs-type&quot;&gt;String&lt;/span&gt;): &lt;span class=&quot;hljs-type&quot;&gt;void&lt;/span&gt;&lt;/div&gt;&lt;div&gt;&lt;span class=&quot;hljs-type&quot;&gt;- &lt;/span&gt;&lt;span class=&quot;hljs-built_in&quot;&gt;getCoordinatesForDisplay&lt;/span&gt;(): CoordinatesForDisplay &lt;/div&gt;&lt;div&gt;- &lt;span class=&quot;hljs-built_in&quot;&gt;setCoordinatesForDisplay&lt;/span&gt;(coords: CoordinatesForDisplay): &lt;span class=&quot;hljs-type&quot;&gt;void&lt;/span&gt;&lt;/div&gt;&lt;div&gt;- &lt;span class=&quot;hljs-built_in&quot;&gt;getLine&lt;/span&gt;(): Line&lt;/div&gt;&lt;div&gt;- &lt;span class=&quot;hljs-built_in&quot;&gt;setLine&lt;/span&gt;(line: Line): &lt;span class=&quot;hljs-type&quot;&gt;void&lt;/span&gt;&lt;/div&gt;&lt;div&gt;- &lt;span class=&quot;hljs-built_in&quot;&gt;getArea&lt;/span&gt;(): Area&lt;/div&gt;&lt;div&gt;- &lt;span class=&quot;hljs-built_in&quot;&gt;setArea&lt;/span&gt;(area: Area): &lt;span class=&quot;hljs-type&quot;&gt;void&lt;/span&gt;&lt;/div&gt;&lt;div&gt;- &lt;span class=&quot;hljs-variable&quot;&gt;toString&lt;/span&gt;&lt;span class=&quot;hljs-punctuation&quot;&gt;(&lt;/span&gt;&lt;span class=&quot;hljs-punctuation&quot;&gt;)&lt;/span&gt;&lt;span class=&quot;hljs-operator&quot;&gt;:&lt;/span&gt; &lt;span class=&quot;hljs-built_in&quot;&gt;String&lt;/span&gt;     &lt;/div&gt;" style="text;strokeColor=none;fillColor=none;align=left;verticalAlign=top;spacingLeft=4;spacingRight=4;overflow=hidden;rotatable=0;points=[[0,0.5],[1,0.5]];portConstraint=eastwest;whiteSpace=wrap;html=1;" parent="Z3DLxL-PWDboXXJ2maVI-25" vertex="1">
          <mxGeometry y="108" width="340" height="162" as="geometry" />
        </mxCell>
        <mxCell id="Z3DLxL-PWDboXXJ2maVI-5" value="CoordinatesForDisplay" style="swimlane;fontStyle=1;align=center;verticalAlign=top;childLayout=stackLayout;horizontal=1;startSize=26;horizontalStack=0;resizeParent=1;resizeParentMax=0;resizeLast=0;collapsible=1;marginBottom=0;whiteSpace=wrap;html=1;" parent="Z3DLxL-PWDboXXJ2maVI-108" vertex="1">
          <mxGeometry x="430" y="900" width="340" height="160" as="geometry" />
        </mxCell>
        <mxCell id="Z3DLxL-PWDboXXJ2maVI-6" value="&lt;div&gt;&lt;span class=&quot;hljs-variable&quot;&gt;+ &lt;/span&gt;latitude: &lt;span class=&quot;hljs-keyword&quot;&gt;double&lt;/span&gt;&lt;/div&gt;&lt;div&gt;+ longitude: &lt;span class=&quot;hljs-keyword&quot;&gt;double&lt;/span&gt;&lt;/div&gt;" style="text;strokeColor=none;fillColor=none;align=left;verticalAlign=top;spacingLeft=4;spacingRight=4;overflow=hidden;rotatable=0;points=[[0,0.5],[1,0.5]];portConstraint=eastwest;whiteSpace=wrap;html=1;" parent="Z3DLxL-PWDboXXJ2maVI-5" vertex="1">
          <mxGeometry y="26" width="340" height="44" as="geometry" />
        </mxCell>
        <mxCell id="Z3DLxL-PWDboXXJ2maVI-7" value="" style="line;strokeWidth=1;fillColor=none;align=left;verticalAlign=middle;spacingTop=-1;spacingLeft=3;spacingRight=3;rotatable=0;labelPosition=right;points=[];portConstraint=eastwest;strokeColor=inherit;" parent="Z3DLxL-PWDboXXJ2maVI-5" vertex="1">
          <mxGeometry y="70" width="340" height="8" as="geometry" />
        </mxCell>
        <mxCell id="Z3DLxL-PWDboXXJ2maVI-8" value="&lt;div&gt;- &lt;span class=&quot;hljs-title function_ invoke__&quot;&gt;getLatitude&lt;/span&gt;(): &lt;span class=&quot;hljs-keyword&quot;&gt;double&lt;/span&gt; &lt;br&gt;-&lt;span class=&quot;hljs-variable&quot;&gt; &lt;/span&gt;&lt;span class=&quot;hljs-title function_ invoke__&quot;&gt;setLatitude&lt;/span&gt;(&lt;span class=&quot;hljs-attr&quot;&gt;latitude&lt;/span&gt;: &lt;span class=&quot;hljs-keyword&quot;&gt;double&lt;/span&gt;): &lt;span class=&quot;hljs-keyword&quot;&gt;void&lt;/span&gt; &lt;br&gt;&lt;/div&gt;&lt;div&gt;- &lt;span class=&quot;hljs-title function_ invoke__&quot;&gt;getLongitude&lt;/span&gt;(): &lt;span class=&quot;hljs-keyword&quot;&gt;double&lt;/span&gt;&lt;/div&gt;&lt;div&gt;- &lt;span class=&quot;hljs-title function_ invoke__&quot;&gt;setLongitude&lt;/span&gt;(&lt;span class=&quot;hljs-attr&quot;&gt;longitude&lt;/span&gt;: &lt;span class=&quot;hljs-keyword&quot;&gt;double&lt;/span&gt;): &lt;span class=&quot;hljs-keyword&quot;&gt;void&lt;/span&gt;&amp;nbsp; &lt;br&gt;- &lt;span class=&quot;hljs-variable&quot;&gt;toString&lt;/span&gt;&lt;span class=&quot;hljs-punctuation&quot;&gt;(&lt;/span&gt;&lt;span class=&quot;hljs-punctuation&quot;&gt;)&lt;/span&gt;&lt;span class=&quot;hljs-operator&quot;&gt;:&lt;/span&gt; &lt;span class=&quot;hljs-built_in&quot;&gt;String&lt;/span&gt;     &lt;/div&gt;" style="text;strokeColor=none;fillColor=none;align=left;verticalAlign=top;spacingLeft=4;spacingRight=4;overflow=hidden;rotatable=0;points=[[0,0.5],[1,0.5]];portConstraint=eastwest;whiteSpace=wrap;html=1;" parent="Z3DLxL-PWDboXXJ2maVI-5" vertex="1">
          <mxGeometry y="78" width="340" height="82" as="geometry" />
        </mxCell>
        <mxCell id="Z3DLxL-PWDboXXJ2maVI-33" value="SituationPublicationLight                 " style="swimlane;fontStyle=1;align=center;verticalAlign=top;childLayout=stackLayout;horizontal=1;startSize=26;horizontalStack=0;resizeParent=1;resizeParentMax=0;resizeLast=0;collapsible=1;marginBottom=0;whiteSpace=wrap;html=1;" parent="Z3DLxL-PWDboXXJ2maVI-108" vertex="1">
          <mxGeometry x="800" y="800" width="340" height="260" as="geometry" />
        </mxCell>
        <mxCell id="Z3DLxL-PWDboXXJ2maVI-34" value="&lt;div&gt;&lt;span class=&quot;hljs-variable&quot;&gt;+ &lt;/span&gt;lang: &lt;span class=&quot;hljs-type&quot;&gt;String&lt;/span&gt;&lt;/div&gt;&lt;div&gt;&lt;span class=&quot;hljs-type&quot;&gt;+&lt;/span&gt; publicationTime: &lt;span class=&quot;hljs-type&quot;&gt;String&lt;/span&gt;&lt;/div&gt;&lt;div&gt;+ publicationCreator: PublicationCreator&lt;/div&gt;&lt;div&gt;+ situationRecord: List&amp;lt;SituationRecord&amp;gt;&lt;/div&gt;" style="text;strokeColor=none;fillColor=none;align=left;verticalAlign=top;spacingLeft=4;spacingRight=4;overflow=hidden;rotatable=0;points=[[0,0.5],[1,0.5]];portConstraint=eastwest;whiteSpace=wrap;html=1;" parent="Z3DLxL-PWDboXXJ2maVI-33" vertex="1">
          <mxGeometry y="26" width="340" height="74" as="geometry" />
        </mxCell>
        <mxCell id="Z3DLxL-PWDboXXJ2maVI-35" value="" style="line;strokeWidth=1;fillColor=none;align=left;verticalAlign=middle;spacingTop=-1;spacingLeft=3;spacingRight=3;rotatable=0;labelPosition=right;points=[];portConstraint=eastwest;strokeColor=inherit;" parent="Z3DLxL-PWDboXXJ2maVI-33" vertex="1">
          <mxGeometry y="100" width="340" height="8" as="geometry" />
        </mxCell>
        <mxCell id="Z3DLxL-PWDboXXJ2maVI-36" value="- getLang(): String&amp;nbsp;&amp;nbsp;&amp;nbsp;&amp;nbsp;&amp;nbsp;&amp;nbsp;&amp;nbsp;&amp;nbsp;&amp;nbsp;&amp;nbsp;&amp;nbsp;&amp;nbsp;&amp;nbsp;&amp;nbsp;&amp;nbsp;&amp;nbsp;&amp;nbsp;&amp;nbsp;&amp;nbsp;&amp;nbsp;&amp;nbsp;&amp;nbsp;&amp;nbsp;&amp;nbsp;&amp;nbsp;&amp;nbsp;&amp;nbsp;&amp;nbsp;&amp;nbsp;&amp;nbsp;&amp;nbsp;&amp;nbsp; &amp;nbsp;&lt;br&gt;- setLang(lang: String): void&amp;nbsp;&amp;nbsp;&amp;nbsp;&amp;nbsp;&amp;nbsp;&amp;nbsp;&amp;nbsp;&amp;nbsp;&amp;nbsp;&amp;nbsp;&amp;nbsp;&amp;nbsp;&amp;nbsp;&amp;nbsp;&amp;nbsp;&amp;nbsp;&amp;nbsp;&amp;nbsp;&amp;nbsp;&amp;nbsp;&amp;nbsp;&amp;nbsp; &amp;nbsp;&lt;br&gt;- getPublicationTime(): String&amp;nbsp;&amp;nbsp;&amp;nbsp;&amp;nbsp;&amp;nbsp;&amp;nbsp;&amp;nbsp;&amp;nbsp;&amp;nbsp;&amp;nbsp;&amp;nbsp;&amp;nbsp;&amp;nbsp;&amp;nbsp;&amp;nbsp;&amp;nbsp;&amp;nbsp;&amp;nbsp;&amp;nbsp;&amp;nbsp;&amp;nbsp; &amp;nbsp;&lt;br&gt;- setPublicationTime(time: String): void&amp;nbsp;&amp;nbsp;&amp;nbsp;&amp;nbsp;&amp;nbsp;&amp;nbsp;&amp;nbsp;&amp;nbsp;&amp;nbsp;&amp;nbsp;&amp;nbsp; &amp;nbsp;&lt;br&gt;- getPublicationCreator(): PublicationCreator&amp;nbsp;&amp;nbsp;&amp;nbsp;&amp;nbsp;&amp;nbsp;&amp;nbsp; &amp;nbsp;&lt;br&gt;- setPublicationCreator(creator: PublicationCreator): void &lt;br&gt;- getSituationRecord(): List&amp;lt;SituationRecord&amp;gt;&amp;nbsp;&amp;nbsp;&amp;nbsp;&amp;nbsp;&amp;nbsp;&amp;nbsp; &amp;nbsp;&lt;br&gt;- setSituationRecord(records: List&amp;lt;SituationRecord&amp;gt;): void &lt;br&gt;- toString(): String&amp;nbsp;&amp;nbsp; " style="text;strokeColor=none;fillColor=none;align=left;verticalAlign=top;spacingLeft=4;spacingRight=4;overflow=hidden;rotatable=0;points=[[0,0.5],[1,0.5]];portConstraint=eastwest;whiteSpace=wrap;html=1;" parent="Z3DLxL-PWDboXXJ2maVI-33" vertex="1">
          <mxGeometry y="108" width="340" height="152" as="geometry" />
        </mxCell>
        <mxCell id="Z3DLxL-PWDboXXJ2maVI-21" value="Line                 " style="swimlane;fontStyle=1;align=center;verticalAlign=top;childLayout=stackLayout;horizontal=1;startSize=26;horizontalStack=0;resizeParent=1;resizeParentMax=0;resizeLast=0;collapsible=1;marginBottom=0;whiteSpace=wrap;html=1;" parent="Z3DLxL-PWDboXXJ2maVI-108" vertex="1">
          <mxGeometry x="810" y="570" width="290" height="200" as="geometry" />
        </mxCell>
        <mxCell id="Z3DLxL-PWDboXXJ2maVI-22" value="&lt;div&gt;&lt;span class=&quot;hljs-variable&quot;&gt;+ &lt;/span&gt;srsName: &lt;span class=&quot;hljs-type&quot;&gt;String&lt;/span&gt;&lt;/div&gt;&lt;div&gt;&lt;span class=&quot;hljs-type&quot;&gt;+ &lt;/span&gt;srsDimension: &lt;span class=&quot;hljs-type&quot;&gt;int&lt;/span&gt;&lt;/div&gt;&lt;div&gt;+ posList: &lt;span class=&quot;hljs-type&quot;&gt;String&lt;/span&gt;&lt;/div&gt;" style="text;strokeColor=none;fillColor=none;align=left;verticalAlign=top;spacingLeft=4;spacingRight=4;overflow=hidden;rotatable=0;points=[[0,0.5],[1,0.5]];portConstraint=eastwest;whiteSpace=wrap;html=1;" parent="Z3DLxL-PWDboXXJ2maVI-21" vertex="1">
          <mxGeometry y="26" width="290" height="54" as="geometry" />
        </mxCell>
        <mxCell id="Z3DLxL-PWDboXXJ2maVI-23" value="" style="line;strokeWidth=1;fillColor=none;align=left;verticalAlign=middle;spacingTop=-1;spacingLeft=3;spacingRight=3;rotatable=0;labelPosition=right;points=[];portConstraint=eastwest;strokeColor=inherit;" parent="Z3DLxL-PWDboXXJ2maVI-21" vertex="1">
          <mxGeometry y="80" width="290" height="8" as="geometry" />
        </mxCell>
        <mxCell id="Z3DLxL-PWDboXXJ2maVI-24" value="&lt;div&gt;- &lt;span class=&quot;hljs-built_in&quot;&gt;getSrsName&lt;/span&gt;(): &lt;span class=&quot;hljs-type&quot;&gt;String&lt;/span&gt; &lt;br&gt;-&lt;span class=&quot;hljs-variable&quot;&gt; &lt;/span&gt;&lt;span class=&quot;hljs-built_in&quot;&gt;setSrsName&lt;/span&gt;(name: &lt;span class=&quot;hljs-type&quot;&gt;String&lt;/span&gt;): &lt;span class=&quot;hljs-type&quot;&gt;void&lt;/span&gt; &lt;/div&gt;&lt;div&gt;- &lt;span class=&quot;hljs-built_in&quot;&gt;getSrsDimension&lt;/span&gt;(): &lt;span class=&quot;hljs-type&quot;&gt;int&lt;/span&gt;&lt;/div&gt;&lt;div&gt;- &lt;span class=&quot;hljs-built_in&quot;&gt;setSrsDimension&lt;/span&gt;(dimension: &lt;span class=&quot;hljs-type&quot;&gt;int&lt;/span&gt;): &lt;span class=&quot;hljs-type&quot;&gt;void&lt;/span&gt;&lt;/div&gt;&lt;div&gt;- &lt;span class=&quot;hljs-built_in&quot;&gt;getPosList&lt;/span&gt;(): &lt;span class=&quot;hljs-type&quot;&gt;String&lt;/span&gt;&lt;/div&gt;&lt;div&gt;- &lt;span class=&quot;hljs-built_in&quot;&gt;setPosList&lt;/span&gt;(list: &lt;span class=&quot;hljs-type&quot;&gt;String&lt;/span&gt;): &lt;span class=&quot;hljs-type&quot;&gt;void&lt;/span&gt;&lt;br&gt;- &lt;span class=&quot;hljs-variable&quot;&gt;toString&lt;/span&gt;&lt;span class=&quot;hljs-punctuation&quot;&gt;(&lt;/span&gt;&lt;span class=&quot;hljs-punctuation&quot;&gt;)&lt;/span&gt;&lt;span class=&quot;hljs-operator&quot;&gt;:&lt;/span&gt; &lt;span class=&quot;hljs-built_in&quot;&gt;String&lt;/span&gt;     &lt;/div&gt;" style="text;strokeColor=none;fillColor=none;align=left;verticalAlign=top;spacingLeft=4;spacingRight=4;overflow=hidden;rotatable=0;points=[[0,0.5],[1,0.5]];portConstraint=eastwest;whiteSpace=wrap;html=1;" parent="Z3DLxL-PWDboXXJ2maVI-21" vertex="1">
          <mxGeometry y="88" width="290" height="112" as="geometry" />
        </mxCell>
        <mxCell id="Z3DLxL-PWDboXXJ2maVI-29" value="PublicationCreator              " style="swimlane;fontStyle=1;align=center;verticalAlign=top;childLayout=stackLayout;horizontal=1;startSize=26;horizontalStack=0;resizeParent=1;resizeParentMax=0;resizeLast=0;collapsible=1;marginBottom=0;whiteSpace=wrap;html=1;" parent="Z3DLxL-PWDboXXJ2maVI-108" vertex="1">
          <mxGeometry x="825" y="340" width="290" height="170" as="geometry" />
        </mxCell>
        <mxCell id="Z3DLxL-PWDboXXJ2maVI-30" value="&lt;div&gt;&lt;span class=&quot;hljs-variable&quot;&gt;+ &lt;/span&gt;country: &lt;span class=&quot;hljs-type&quot;&gt;String&lt;/span&gt;&lt;/div&gt;&lt;div&gt;&lt;span class=&quot;hljs-type&quot;&gt;+&lt;/span&gt;nationalIdentifier: &lt;span class=&quot;hljs-type&quot;&gt;String&lt;/span&gt;&lt;/div&gt;&lt;div&gt;&lt;br&gt;&lt;/div&gt;" style="text;strokeColor=none;fillColor=none;align=left;verticalAlign=top;spacingLeft=4;spacingRight=4;overflow=hidden;rotatable=0;points=[[0,0.5],[1,0.5]];portConstraint=eastwest;whiteSpace=wrap;html=1;" parent="Z3DLxL-PWDboXXJ2maVI-29" vertex="1">
          <mxGeometry y="26" width="290" height="44" as="geometry" />
        </mxCell>
        <mxCell id="Z3DLxL-PWDboXXJ2maVI-31" value="" style="line;strokeWidth=1;fillColor=none;align=left;verticalAlign=middle;spacingTop=-1;spacingLeft=3;spacingRight=3;rotatable=0;labelPosition=right;points=[];portConstraint=eastwest;strokeColor=inherit;" parent="Z3DLxL-PWDboXXJ2maVI-29" vertex="1">
          <mxGeometry y="70" width="290" height="8" as="geometry" />
        </mxCell>
        <mxCell id="Z3DLxL-PWDboXXJ2maVI-32" value="&lt;div&gt;- &lt;span class=&quot;hljs-built_in&quot;&gt;getCountry&lt;/span&gt;(): &lt;span class=&quot;hljs-type&quot;&gt;String&lt;/span&gt; &lt;br&gt;-&lt;span class=&quot;hljs-variable&quot;&gt; &lt;/span&gt;&lt;span class=&quot;hljs-built_in&quot;&gt;setCountry&lt;/span&gt;(country: &lt;span class=&quot;hljs-type&quot;&gt;String&lt;/span&gt;): &lt;span class=&quot;hljs-type&quot;&gt;void&lt;/span&gt; &lt;/div&gt;&lt;div&gt;- &lt;span class=&quot;hljs-built_in&quot;&gt;getNationalIdentifier&lt;/span&gt;(): &lt;span class=&quot;hljs-type&quot;&gt;String&lt;/span&gt;&lt;/div&gt;&lt;div&gt;- &lt;span class=&quot;hljs-built_in&quot;&gt;setNationalIdentifier&lt;/span&gt;(id: &lt;span class=&quot;hljs-type&quot;&gt;String&lt;/span&gt;): &lt;span class=&quot;hljs-type&quot;&gt;void&lt;/span&gt;&lt;br&gt;&lt;/div&gt;&lt;div&gt;- &lt;span class=&quot;hljs-variable&quot;&gt;toString&lt;/span&gt;&lt;span class=&quot;hljs-punctuation&quot;&gt;(&lt;/span&gt;&lt;span class=&quot;hljs-punctuation&quot;&gt;)&lt;/span&gt;&lt;span class=&quot;hljs-operator&quot;&gt;:&lt;/span&gt; &lt;span class=&quot;hljs-built_in&quot;&gt;String&lt;/span&gt;     &lt;/div&gt;" style="text;strokeColor=none;fillColor=none;align=left;verticalAlign=top;spacingLeft=4;spacingRight=4;overflow=hidden;rotatable=0;points=[[0,0.5],[1,0.5]];portConstraint=eastwest;whiteSpace=wrap;html=1;" parent="Z3DLxL-PWDboXXJ2maVI-29" vertex="1">
          <mxGeometry y="78" width="290" height="92" as="geometry" />
        </mxCell>
        <mxCell id="Z3DLxL-PWDboXXJ2maVI-13" value="Exterior               " style="swimlane;fontStyle=1;align=center;verticalAlign=top;childLayout=stackLayout;horizontal=1;startSize=26;horizontalStack=0;resizeParent=1;resizeParentMax=0;resizeLast=0;collapsible=1;marginBottom=0;whiteSpace=wrap;html=1;" parent="Z3DLxL-PWDboXXJ2maVI-108" vertex="1">
          <mxGeometry x="865" y="110" width="290" height="200" as="geometry" />
        </mxCell>
        <mxCell id="Z3DLxL-PWDboXXJ2maVI-14" value="&lt;div&gt;&lt;span class=&quot;hljs-variable&quot;&gt;+ &lt;/span&gt;srsName: &lt;span class=&quot;hljs-type&quot;&gt;String&lt;/span&gt;&lt;/div&gt;&lt;div&gt;&lt;span class=&quot;hljs-type&quot;&gt;+ &lt;/span&gt;srsDimension: &lt;span class=&quot;hljs-type&quot;&gt;int&lt;/span&gt;&lt;/div&gt;&lt;div&gt;+ posList: &lt;span class=&quot;hljs-type&quot;&gt;String&lt;/span&gt;&lt;/div&gt;" style="text;strokeColor=none;fillColor=none;align=left;verticalAlign=top;spacingLeft=4;spacingRight=4;overflow=hidden;rotatable=0;points=[[0,0.5],[1,0.5]];portConstraint=eastwest;whiteSpace=wrap;html=1;" parent="Z3DLxL-PWDboXXJ2maVI-13" vertex="1">
          <mxGeometry y="26" width="290" height="54" as="geometry" />
        </mxCell>
        <mxCell id="Z3DLxL-PWDboXXJ2maVI-15" value="" style="line;strokeWidth=1;fillColor=none;align=left;verticalAlign=middle;spacingTop=-1;spacingLeft=3;spacingRight=3;rotatable=0;labelPosition=right;points=[];portConstraint=eastwest;strokeColor=inherit;" parent="Z3DLxL-PWDboXXJ2maVI-13" vertex="1">
          <mxGeometry y="80" width="290" height="8" as="geometry" />
        </mxCell>
        <mxCell id="Z3DLxL-PWDboXXJ2maVI-16" value="&lt;div&gt;- &lt;span class=&quot;hljs-built_in&quot;&gt;getSrsName&lt;/span&gt;(): &lt;span class=&quot;hljs-type&quot;&gt;String&lt;/span&gt; &lt;br&gt;-&lt;span class=&quot;hljs-variable&quot;&gt; &lt;/span&gt;&lt;span class=&quot;hljs-built_in&quot;&gt;setSrsName&lt;/span&gt;(name: &lt;span class=&quot;hljs-type&quot;&gt;String&lt;/span&gt;): &lt;span class=&quot;hljs-type&quot;&gt;void&lt;/span&gt; &lt;/div&gt;&lt;div&gt;- &lt;span class=&quot;hljs-built_in&quot;&gt;getSrsDimension&lt;/span&gt;(): &lt;span class=&quot;hljs-type&quot;&gt;int&lt;/span&gt;&lt;/div&gt;&lt;div&gt;- &lt;span class=&quot;hljs-built_in&quot;&gt;setSrsDimension&lt;/span&gt;(dimension: &lt;span class=&quot;hljs-type&quot;&gt;int&lt;/span&gt;): &lt;span class=&quot;hljs-type&quot;&gt;void&lt;/span&gt;&lt;/div&gt;&lt;div&gt;- &lt;span class=&quot;hljs-built_in&quot;&gt;getPosList&lt;/span&gt;(): &lt;span class=&quot;hljs-type&quot;&gt;String&lt;/span&gt;&lt;/div&gt;&lt;div&gt;- &lt;span class=&quot;hljs-built_in&quot;&gt;setPosList&lt;/span&gt;(list: &lt;span class=&quot;hljs-type&quot;&gt;String&lt;/span&gt;): &lt;span class=&quot;hljs-type&quot;&gt;void&lt;/span&gt;&lt;br&gt;- &lt;span class=&quot;hljs-variable&quot;&gt;toString&lt;/span&gt;&lt;span class=&quot;hljs-punctuation&quot;&gt;(&lt;/span&gt;&lt;span class=&quot;hljs-punctuation&quot;&gt;)&lt;/span&gt;&lt;span class=&quot;hljs-operator&quot;&gt;:&lt;/span&gt; &lt;span class=&quot;hljs-built_in&quot;&gt;String&lt;/span&gt;     &lt;/div&gt;" style="text;strokeColor=none;fillColor=none;align=left;verticalAlign=top;spacingLeft=4;spacingRight=4;overflow=hidden;rotatable=0;points=[[0,0.5],[1,0.5]];portConstraint=eastwest;whiteSpace=wrap;html=1;" parent="Z3DLxL-PWDboXXJ2maVI-13" vertex="1">
          <mxGeometry y="88" width="290" height="112" as="geometry" />
        </mxCell>
        <mxCell id="Z3DLxL-PWDboXXJ2maVI-41" value="SituationReport               " style="swimlane;fontStyle=1;align=center;verticalAlign=top;childLayout=stackLayout;horizontal=1;startSize=26;horizontalStack=0;resizeParent=1;resizeParentMax=0;resizeLast=0;collapsible=1;marginBottom=0;whiteSpace=wrap;html=1;" parent="Z3DLxL-PWDboXXJ2maVI-108" vertex="1">
          <mxGeometry x="360" y="10" width="340" height="180" as="geometry" />
        </mxCell>
        <mxCell id="Z3DLxL-PWDboXXJ2maVI-42" value="&lt;div&gt;&lt;span class=&quot;hljs-variable&quot;&gt;+ &lt;/span&gt;modelBaseVersion: &lt;span class=&quot;hljs-type&quot;&gt;String&lt;/span&gt;&lt;/div&gt;&lt;div&gt;&lt;span class=&quot;hljs-type&quot;&gt;+&lt;/span&gt; situationPublicationLight: SituationPublicationLight&lt;/div&gt;" style="text;strokeColor=none;fillColor=none;align=left;verticalAlign=top;spacingLeft=4;spacingRight=4;overflow=hidden;rotatable=0;points=[[0,0.5],[1,0.5]];portConstraint=eastwest;whiteSpace=wrap;html=1;" parent="Z3DLxL-PWDboXXJ2maVI-41" vertex="1">
          <mxGeometry y="26" width="340" height="44" as="geometry" />
        </mxCell>
        <mxCell id="Z3DLxL-PWDboXXJ2maVI-43" value="" style="line;strokeWidth=1;fillColor=none;align=left;verticalAlign=middle;spacingTop=-1;spacingLeft=3;spacingRight=3;rotatable=0;labelPosition=right;points=[];portConstraint=eastwest;strokeColor=inherit;" parent="Z3DLxL-PWDboXXJ2maVI-41" vertex="1">
          <mxGeometry y="70" width="340" height="8" as="geometry" />
        </mxCell>
        <mxCell id="Z3DLxL-PWDboXXJ2maVI-44" value="- getModelBaseVersion(): String&amp;nbsp;&amp;nbsp;&amp;nbsp;&amp;nbsp;&amp;nbsp;&amp;nbsp;&amp;nbsp;&amp;nbsp;&amp;nbsp;&amp;nbsp;&amp;nbsp;&amp;nbsp;&amp;nbsp; &amp;nbsp;&lt;br&gt;- setModelBaseVersion(version: String): void &amp;nbsp;&lt;br&gt;- getSituationPublicationLight(): SituationPublicationLight&lt;br&gt;- setSituationPublicationLight(publication: SituationPublicationLight): void&lt;br&gt;- toString(): String " style="text;strokeColor=none;fillColor=none;align=left;verticalAlign=top;spacingLeft=4;spacingRight=4;overflow=hidden;rotatable=0;points=[[0,0.5],[1,0.5]];portConstraint=eastwest;whiteSpace=wrap;html=1;" parent="Z3DLxL-PWDboXXJ2maVI-41" vertex="1">
          <mxGeometry y="78" width="340" height="102" as="geometry" />
        </mxCell>
        <mxCell id="Z3DLxL-PWDboXXJ2maVI-109" value="fi.tuni.TampereTrafficApp.models.TrafficCamera" style="shape=umlFrame;whiteSpace=wrap;html=1;pointerEvents=0;recursiveResize=0;container=1;collapsible=0;width=279;height=30;" parent="Z3DLxL-PWDboXXJ2maVI-106" vertex="1">
          <mxGeometry x="60" y="400" width="700" height="820" as="geometry" />
        </mxCell>
        <mxCell id="u9IRBjyvt4qCOGh6tf9W-77" value="TrafficCamera" style="swimlane;fontStyle=1;align=center;verticalAlign=top;childLayout=stackLayout;horizontal=1;startSize=26;horizontalStack=0;resizeParent=1;resizeParentMax=0;resizeLast=0;collapsible=1;marginBottom=0;whiteSpace=wrap;html=1;" parent="Z3DLxL-PWDboXXJ2maVI-109" vertex="1">
          <mxGeometry x="10" y="450" width="330" height="350" as="geometry" />
        </mxCell>
        <mxCell id="u9IRBjyvt4qCOGh6tf9W-78" value="&lt;div&gt;&lt;span class=&quot;hljs-variable&quot;&gt;+ &lt;/span&gt;cameraId: &lt;span class=&quot;hljs-type&quot;&gt;String&lt;/span&gt;&lt;/div&gt;&lt;div&gt;+ cameraName: &lt;span class=&quot;hljs-type&quot;&gt;String&lt;/span&gt;&lt;/div&gt;&lt;div&gt;+ location: Location                   &lt;span class=&quot;hljs-operator&quot;&gt;&lt;/span&gt;&lt;/div&gt;&lt;div&gt;+ cameraPresets: List&amp;lt;CameraPreset&amp;gt;&lt;span class=&quot;hljs-operator&quot;&gt;&lt;/span&gt;&lt;/div&gt;" style="text;strokeColor=none;fillColor=none;align=left;verticalAlign=top;spacingLeft=4;spacingRight=4;overflow=hidden;rotatable=0;points=[[0,0.5],[1,0.5]];portConstraint=eastwest;whiteSpace=wrap;html=1;" parent="u9IRBjyvt4qCOGh6tf9W-77" vertex="1">
          <mxGeometry y="26" width="330" height="74" as="geometry" />
        </mxCell>
        <mxCell id="u9IRBjyvt4qCOGh6tf9W-79" value="" style="line;strokeWidth=1;fillColor=none;align=left;verticalAlign=middle;spacingTop=-1;spacingLeft=3;spacingRight=3;rotatable=0;labelPosition=right;points=[];portConstraint=eastwest;strokeColor=inherit;" parent="u9IRBjyvt4qCOGh6tf9W-77" vertex="1">
          <mxGeometry y="100" width="330" height="8" as="geometry" />
        </mxCell>
        <mxCell id="u9IRBjyvt4qCOGh6tf9W-80" value="&lt;div&gt;- &lt;span class=&quot;hljs-built_in&quot;&gt;getCameraId&lt;/span&gt;(): &lt;span class=&quot;hljs-type&quot;&gt;String&lt;/span&gt;&lt;br&gt;-&lt;span class=&quot;hljs-variable&quot;&gt; &lt;/span&gt;&lt;span class=&quot;hljs-built_in&quot;&gt;setCameraId&lt;/span&gt;(id: &lt;span class=&quot;hljs-type&quot;&gt;String&lt;/span&gt;): &lt;span class=&quot;hljs-type&quot;&gt;void&lt;/span&gt;&lt;br&gt;- &lt;span class=&quot;hljs-built_in&quot;&gt;getCameraName&lt;/span&gt;(): &lt;span class=&quot;hljs-type&quot;&gt;String&lt;/span&gt; &lt;br&gt;- &lt;span class=&quot;hljs-built_in&quot;&gt;setCameraName&lt;/span&gt;(name: &lt;span class=&quot;hljs-type&quot;&gt;String&lt;/span&gt;): &lt;span class=&quot;hljs-type&quot;&gt;void&lt;/span&gt; &lt;br&gt;- &lt;span class=&quot;hljs-built_in&quot;&gt;getLocation&lt;/span&gt;(): Location &lt;br&gt;- &lt;span class=&quot;hljs-built_in&quot;&gt;setLocation&lt;/span&gt;(location: Location): &lt;span class=&quot;hljs-type&quot;&gt;void&lt;/span&gt;&lt;/div&gt;&lt;div&gt;- &lt;span class=&quot;hljs-built_in&quot;&gt;getCameraPresets&lt;/span&gt;(): List&amp;lt;CameraPreset&amp;gt;&lt;/div&gt;&lt;div&gt;- &lt;span class=&quot;hljs-built_in&quot;&gt;setCameraPresets&lt;/span&gt;(presets: List&amp;lt;CameraPreset&amp;gt;): &lt;span class=&quot;hljs-type&quot;&gt;void&lt;/span&gt; &lt;br&gt;- &lt;span class=&quot;hljs-built_in&quot;&gt;toString&lt;/span&gt;(): &lt;span class=&quot;hljs-type&quot;&gt;String&lt;/span&gt; &lt;br&gt;- &lt;span class=&quot;hljs-built_in&quot;&gt;equals&lt;/span&gt;(obj: Object): &lt;span class=&quot;hljs-type&quot;&gt;boolean&lt;/span&gt;&lt;br&gt;- &lt;span class=&quot;hljs-built_in&quot;&gt;hashCode&lt;/span&gt;(): &lt;span class=&quot;hljs-type&quot;&gt;int&lt;/span&gt;&lt;/div&gt;&lt;div&gt;&lt;span class=&quot;hljs-type&quot;&gt;&lt;br&gt;&lt;/span&gt;&lt;/div&gt;&lt;div&gt;&lt;span class=&quot;hljs-type&quot;&gt;&lt;br&gt;&lt;/span&gt;&lt;/div&gt;&lt;div&gt;&lt;span class=&quot;hljs-type&quot;&gt;&amp;lt;&amp;lt; &lt;/span&gt;NoArgsConstructor &amp;gt;&amp;gt;&lt;/div&gt;&lt;div&gt;&lt;div&gt;&lt;span class=&quot;hljs-type&quot;&gt;&amp;lt;&amp;lt; &lt;/span&gt;AllArgsConstructor &amp;gt;&amp;gt;&lt;/div&gt;&lt;div&gt;&lt;div&gt;&lt;span class=&quot;hljs-type&quot;&gt;&amp;lt;&amp;lt; &lt;/span&gt;Builder &amp;gt;&amp;gt;     &lt;/div&gt;     &lt;/div&gt;     &lt;/div&gt;" style="text;strokeColor=none;fillColor=none;align=left;verticalAlign=top;spacingLeft=4;spacingRight=4;overflow=hidden;rotatable=0;points=[[0,0.5],[1,0.5]];portConstraint=eastwest;whiteSpace=wrap;html=1;" parent="u9IRBjyvt4qCOGh6tf9W-77" vertex="1">
          <mxGeometry y="108" width="330" height="242" as="geometry" />
        </mxCell>
        <mxCell id="u9IRBjyvt4qCOGh6tf9W-65" value="Geometry" style="swimlane;fontStyle=1;align=center;verticalAlign=top;childLayout=stackLayout;horizontal=1;startSize=26;horizontalStack=0;resizeParent=1;resizeParentMax=0;resizeLast=0;collapsible=1;marginBottom=0;whiteSpace=wrap;html=1;" parent="Z3DLxL-PWDboXXJ2maVI-109" vertex="1">
          <mxGeometry x="360" y="506" width="300" height="126" as="geometry" />
        </mxCell>
        <mxCell id="u9IRBjyvt4qCOGh6tf9W-68" value="&lt;div&gt;&lt;span class=&quot;hljs-built_in&quot;&gt;- getType&lt;/span&gt;(): &lt;span class=&quot;hljs-type&quot;&gt;String&lt;/span&gt;&lt;/div&gt;&lt;div&gt;&lt;div&gt;- &lt;span class=&quot;hljs-built_in&quot;&gt;setType&lt;/span&gt;(type: &lt;span class=&quot;hljs-type&quot;&gt;String&lt;/span&gt;): &lt;span class=&quot;hljs-type&quot;&gt;void&lt;/span&gt; &lt;/div&gt;&lt;/div&gt;&lt;div&gt;- &lt;span class=&quot;hljs-built_in&quot;&gt;getCoordinates&lt;/span&gt;(): Coordinates&lt;/div&gt;&lt;div&gt;- &lt;span class=&quot;hljs-built_in&quot;&gt;setCoordinates&lt;/span&gt;(coordinates: Coordinates): &lt;span class=&quot;hljs-type&quot;&gt;void&lt;/span&gt;&lt;/div&gt;&lt;div&gt; &lt;span class=&quot;hljs-title function_ invoke__&quot;&gt;- toString&lt;/span&gt;(): String&lt;/div&gt;" style="text;strokeColor=none;fillColor=none;align=left;verticalAlign=top;spacingLeft=4;spacingRight=4;overflow=hidden;rotatable=0;points=[[0,0.5],[1,0.5]];portConstraint=eastwest;whiteSpace=wrap;html=1;" parent="u9IRBjyvt4qCOGh6tf9W-65" vertex="1">
          <mxGeometry y="26" width="300" height="92" as="geometry" />
        </mxCell>
        <mxCell id="u9IRBjyvt4qCOGh6tf9W-67" value="" style="line;strokeWidth=1;fillColor=none;align=left;verticalAlign=middle;spacingTop=-1;spacingLeft=3;spacingRight=3;rotatable=0;labelPosition=right;points=[];portConstraint=eastwest;strokeColor=inherit;" parent="u9IRBjyvt4qCOGh6tf9W-65" vertex="1">
          <mxGeometry y="118" width="300" height="8" as="geometry" />
        </mxCell>
        <mxCell id="u9IRBjyvt4qCOGh6tf9W-55" value="&lt;span class=&quot;hljs-variable&quot;&gt;CameraPreset&lt;/span&gt;               &lt;span class=&quot;hljs-operator&quot;&gt;&lt;/span&gt;" style="swimlane;fontStyle=1;align=center;verticalAlign=top;childLayout=stackLayout;horizontal=1;startSize=26;horizontalStack=0;resizeParent=1;resizeParentMax=0;resizeLast=0;collapsible=1;marginBottom=0;whiteSpace=wrap;html=1;" parent="Z3DLxL-PWDboXXJ2maVI-109" vertex="1">
          <mxGeometry x="10" y="120" width="290" height="310" as="geometry" />
        </mxCell>
        <mxCell id="u9IRBjyvt4qCOGh6tf9W-56" value="&lt;div&gt;&lt;span class=&quot;hljs-variable&quot;&gt;+ presetId&lt;/span&gt;&lt;span class=&quot;hljs-operator&quot;&gt;:&lt;/span&gt; &lt;span class=&quot;hljs-built_in&quot;&gt;String&lt;/span&gt;&lt;/div&gt;&lt;div&gt;+ &lt;span class=&quot;hljs-variable&quot;&gt;presentationName&lt;/span&gt;&lt;span class=&quot;hljs-operator&quot;&gt;:&lt;/span&gt; &lt;span class=&quot;hljs-built_in&quot;&gt;String&lt;/span&gt;&lt;/div&gt;&lt;div&gt;+&amp;nbsp;&lt;span class=&quot;hljs-variable&quot;&gt;imageUrl&lt;/span&gt;&lt;span class=&quot;hljs-operator&quot;&gt;&lt;/span&gt;: &lt;span class=&quot;hljs-built_in&quot;&gt;String&lt;/span&gt;                   &lt;span class=&quot;hljs-operator&quot;&gt;&lt;/span&gt;&lt;/div&gt;&lt;div&gt;+&amp;nbsp;&lt;span class=&quot;hljs-variable&quot;&gt;directionDescription&lt;/span&gt;&lt;span class=&quot;hljs-operator&quot;&gt;&lt;/span&gt;: &lt;span class=&quot;hljs-built_in&quot;&gt;String&lt;/span&gt;       &lt;span class=&quot;hljs-operator&quot;&gt;&lt;/span&gt;&lt;/div&gt;&lt;div&gt;+&amp;nbsp;&lt;span class=&quot;hljs-variable&quot;&gt;latestPictureTimestamp&lt;/span&gt;&lt;span class=&quot;hljs-operator&quot;&gt;&lt;/span&gt;: &lt;span class=&quot;hljs-variable&quot;&gt;ZonedDateTime&lt;/span&gt; &lt;/div&gt;&lt;div&gt;&lt;br&gt;&lt;/div&gt;" style="text;strokeColor=none;fillColor=none;align=left;verticalAlign=top;spacingLeft=4;spacingRight=4;overflow=hidden;rotatable=0;points=[[0,0.5],[1,0.5]];portConstraint=eastwest;whiteSpace=wrap;html=1;" parent="u9IRBjyvt4qCOGh6tf9W-55" vertex="1">
          <mxGeometry y="26" width="290" height="84" as="geometry" />
        </mxCell>
        <mxCell id="u9IRBjyvt4qCOGh6tf9W-57" value="" style="line;strokeWidth=1;fillColor=none;align=left;verticalAlign=middle;spacingTop=-1;spacingLeft=3;spacingRight=3;rotatable=0;labelPosition=right;points=[];portConstraint=eastwest;strokeColor=inherit;" parent="u9IRBjyvt4qCOGh6tf9W-55" vertex="1">
          <mxGeometry y="110" width="290" height="8" as="geometry" />
        </mxCell>
        <mxCell id="u9IRBjyvt4qCOGh6tf9W-58" value="&lt;div&gt;- &lt;span class=&quot;hljs-variable&quot;&gt;getPresetId&lt;/span&gt;&lt;span class=&quot;hljs-punctuation&quot;&gt;(&lt;/span&gt;&lt;span class=&quot;hljs-punctuation&quot;&gt;)&lt;/span&gt;&lt;span class=&quot;hljs-operator&quot;&gt;:&lt;/span&gt; &lt;span class=&quot;hljs-built_in&quot;&gt;String&lt;/span&gt; &lt;br&gt;-&lt;span class=&quot;hljs-variable&quot;&gt; setPresetId&lt;/span&gt;&lt;span class=&quot;hljs-punctuation&quot;&gt;(&lt;/span&gt;&lt;span class=&quot;hljs-variable&quot;&gt;presetId&lt;/span&gt;&lt;span class=&quot;hljs-operator&quot;&gt;:&lt;/span&gt; &lt;span class=&quot;hljs-built_in&quot;&gt;String&lt;/span&gt;&lt;span class=&quot;hljs-punctuation&quot;&gt;)&lt;/span&gt;&lt;span class=&quot;hljs-operator&quot;&gt;:&lt;/span&gt; &lt;span class=&quot;hljs-variable&quot;&gt;void&lt;/span&gt;&lt;br&gt;- &lt;span class=&quot;hljs-variable&quot;&gt;getPresentationName&lt;/span&gt;&lt;span class=&quot;hljs-punctuation&quot;&gt;(&lt;/span&gt;&lt;span class=&quot;hljs-punctuation&quot;&gt;)&lt;/span&gt;&lt;span class=&quot;hljs-operator&quot;&gt;:&lt;/span&gt; &lt;span class=&quot;hljs-built_in&quot;&gt;String&lt;/span&gt; &lt;br&gt;- &lt;span class=&quot;hljs-variable&quot;&gt;setPresentationName&lt;/span&gt;&lt;span class=&quot;hljs-punctuation&quot;&gt;(&lt;/span&gt;&lt;span class=&quot;hljs-variable&quot;&gt;name&lt;/span&gt;&lt;span class=&quot;hljs-operator&quot;&gt;:&lt;/span&gt; &lt;span class=&quot;hljs-built_in&quot;&gt;String&lt;/span&gt;&lt;span class=&quot;hljs-punctuation&quot;&gt;)&lt;/span&gt;&lt;span class=&quot;hljs-operator&quot;&gt;:&lt;/span&gt; &lt;span class=&quot;hljs-variable&quot;&gt;void&lt;/span&gt; &lt;br&gt;- &lt;span class=&quot;hljs-variable&quot;&gt;getImageUrl&lt;/span&gt;&lt;span class=&quot;hljs-punctuation&quot;&gt;(&lt;/span&gt;&lt;span class=&quot;hljs-punctuation&quot;&gt;)&lt;/span&gt;&lt;span class=&quot;hljs-operator&quot;&gt;:&lt;/span&gt; &lt;span class=&quot;hljs-built_in&quot;&gt;String&lt;/span&gt; &lt;br&gt;- &lt;span class=&quot;hljs-variable&quot;&gt;setImageUrl&lt;/span&gt;&lt;span class=&quot;hljs-punctuation&quot;&gt;(&lt;/span&gt;&lt;span class=&quot;hljs-variable&quot;&gt;url&lt;/span&gt;&lt;span class=&quot;hljs-operator&quot;&gt;:&lt;/span&gt; &lt;span class=&quot;hljs-built_in&quot;&gt;String&lt;/span&gt;&lt;span class=&quot;hljs-punctuation&quot;&gt;)&lt;/span&gt;&lt;span class=&quot;hljs-operator&quot;&gt;:&lt;/span&gt; &lt;span class=&quot;hljs-variable&quot;&gt;void&lt;/span&gt; &lt;br&gt;- &lt;span class=&quot;hljs-variable&quot;&gt;getDirectionDescription&lt;/span&gt;&lt;span class=&quot;hljs-punctuation&quot;&gt;(&lt;/span&gt;&lt;span class=&quot;hljs-punctuation&quot;&gt;)&lt;/span&gt;&lt;span class=&quot;hljs-operator&quot;&gt;:&lt;/span&gt; &lt;span class=&quot;hljs-built_in&quot;&gt;String&lt;/span&gt; &lt;br&gt;- &lt;span class=&quot;hljs-variable&quot;&gt;setDirectionDescription&lt;/span&gt;&lt;span class=&quot;hljs-punctuation&quot;&gt;(&lt;/span&gt;&lt;span class=&quot;hljs-variable&quot;&gt;desc&lt;/span&gt;&lt;span class=&quot;hljs-operator&quot;&gt;:&lt;/span&gt; &lt;span class=&quot;hljs-built_in&quot;&gt;String&lt;/span&gt;&lt;span class=&quot;hljs-punctuation&quot;&gt;)&lt;/span&gt;&lt;span class=&quot;hljs-operator&quot;&gt;:&lt;/span&gt; &lt;span class=&quot;hljs-variable&quot;&gt;void&lt;/span&gt; &lt;br&gt;- &lt;span class=&quot;hljs-variable&quot;&gt;getLatestPictureTimestamp&lt;/span&gt;&lt;span class=&quot;hljs-punctuation&quot;&gt;(&lt;/span&gt;&lt;span class=&quot;hljs-punctuation&quot;&gt;)&lt;/span&gt;&lt;span class=&quot;hljs-operator&quot;&gt;:&lt;/span&gt; &lt;span class=&quot;hljs-variable&quot;&gt;ZonedDateTime&lt;/span&gt; &lt;br&gt;- &lt;span class=&quot;hljs-variable&quot;&gt;setLatestPictureTimestamp&lt;/span&gt;&lt;span class=&quot;hljs-punctuation&quot;&gt;(&lt;/span&gt;&lt;span class=&quot;hljs-variable&quot;&gt;time&lt;/span&gt;&lt;span class=&quot;hljs-operator&quot;&gt;:&lt;/span&gt; &lt;span class=&quot;hljs-variable&quot;&gt;ZonedDateTime&lt;/span&gt;&lt;span class=&quot;hljs-punctuation&quot;&gt;)&lt;/span&gt;&lt;span class=&quot;hljs-operator&quot;&gt;:&lt;/span&gt; &lt;span class=&quot;hljs-variable&quot;&gt;void&lt;/span&gt; &lt;br&gt;- &lt;span class=&quot;hljs-variable&quot;&gt;toString&lt;/span&gt;&lt;span class=&quot;hljs-punctuation&quot;&gt;(&lt;/span&gt;&lt;span class=&quot;hljs-punctuation&quot;&gt;)&lt;/span&gt;&lt;span class=&quot;hljs-operator&quot;&gt;:&lt;/span&gt; &lt;span class=&quot;hljs-built_in&quot;&gt;String&lt;/span&gt;     &lt;/div&gt;" style="text;strokeColor=none;fillColor=none;align=left;verticalAlign=top;spacingLeft=4;spacingRight=4;overflow=hidden;rotatable=0;points=[[0,0.5],[1,0.5]];portConstraint=eastwest;whiteSpace=wrap;html=1;" parent="u9IRBjyvt4qCOGh6tf9W-55" vertex="1">
          <mxGeometry y="118" width="290" height="192" as="geometry" />
        </mxCell>
        <mxCell id="u9IRBjyvt4qCOGh6tf9W-73" value="Meta" style="swimlane;fontStyle=1;align=center;verticalAlign=top;childLayout=stackLayout;horizontal=1;startSize=26;horizontalStack=0;resizeParent=1;resizeParentMax=0;resizeLast=0;collapsible=1;marginBottom=0;whiteSpace=wrap;html=1;" parent="Z3DLxL-PWDboXXJ2maVI-109" vertex="1">
          <mxGeometry x="360" y="320" width="260" height="170" as="geometry" />
        </mxCell>
        <mxCell id="u9IRBjyvt4qCOGh6tf9W-74" value="&lt;div&gt;+ &lt;span class=&quot;hljs-attr&quot;&gt;requestFilters&lt;/span&gt;: &lt;span class=&quot;hljs-title class_&quot;&gt;Object&lt;/span&gt;&lt;/div&gt;&lt;div&gt;&lt;span class=&quot;hljs-attr&quot;&gt;+ responseTs&lt;/span&gt;: &lt;span class=&quot;hljs-title class_&quot;&gt;ZonedDateTime&lt;/span&gt;&lt;/div&gt;" style="text;strokeColor=none;fillColor=none;align=left;verticalAlign=top;spacingLeft=4;spacingRight=4;overflow=hidden;rotatable=0;points=[[0,0.5],[1,0.5]];portConstraint=eastwest;whiteSpace=wrap;html=1;" parent="u9IRBjyvt4qCOGh6tf9W-73" vertex="1">
          <mxGeometry y="26" width="260" height="44" as="geometry" />
        </mxCell>
        <mxCell id="u9IRBjyvt4qCOGh6tf9W-75" value="" style="line;strokeWidth=1;fillColor=none;align=left;verticalAlign=middle;spacingTop=-1;spacingLeft=3;spacingRight=3;rotatable=0;labelPosition=right;points=[];portConstraint=eastwest;strokeColor=inherit;" parent="u9IRBjyvt4qCOGh6tf9W-73" vertex="1">
          <mxGeometry y="70" width="260" height="8" as="geometry" />
        </mxCell>
        <mxCell id="u9IRBjyvt4qCOGh6tf9W-76" value="&lt;div&gt;&lt;span class=&quot;hljs-built_in&quot;&gt;-&lt;/span&gt;&lt;span class=&quot;hljs-title function_&quot;&gt;getRequestFilters&lt;/span&gt;(): &lt;span class=&quot;hljs-title class_&quot;&gt;Object&lt;/span&gt;&lt;/div&gt;&lt;div&gt;- &lt;span class=&quot;hljs-title function_&quot;&gt;setRequestFilters&lt;/span&gt;(&lt;span class=&quot;hljs-attr&quot;&gt;filters&lt;/span&gt;: &lt;span class=&quot;hljs-title class_&quot;&gt;Object&lt;/span&gt;): &lt;span class=&quot;hljs-keyword&quot;&gt;void&lt;/span&gt;&lt;/div&gt;&lt;div&gt;&lt;/div&gt;&lt;div&gt; &lt;span class=&quot;hljs-title function_ invoke__&quot;&gt;- &lt;/span&gt;&lt;span class=&quot;hljs-title function_&quot;&gt;getResponseTs&lt;/span&gt;(): &lt;span class=&quot;hljs-title class_&quot;&gt;ZonedDateTime&lt;/span&gt;&lt;/div&gt;&lt;div&gt;&lt;span class=&quot;hljs-title class_&quot;&gt;- &lt;/span&gt;&lt;span class=&quot;hljs-title function_&quot;&gt;setResponseTs&lt;/span&gt;(&lt;span class=&quot;hljs-attr&quot;&gt;ts&lt;/span&gt;: &lt;span class=&quot;hljs-title class_&quot;&gt;ZonedDateTime&lt;/span&gt;): &lt;span class=&quot;hljs-keyword&quot;&gt;void&lt;/span&gt;&lt;/div&gt;&lt;div&gt;&lt;span class=&quot;hljs-keyword&quot;&gt;- &lt;/span&gt;&lt;span class=&quot;hljs-title function_&quot;&gt;toString&lt;/span&gt;(): &lt;span class=&quot;hljs-title class_&quot;&gt;String&lt;/span&gt;&lt;/div&gt;" style="text;strokeColor=none;fillColor=none;align=left;verticalAlign=top;spacingLeft=4;spacingRight=4;overflow=hidden;rotatable=0;points=[[0,0.5],[1,0.5]];portConstraint=eastwest;whiteSpace=wrap;html=1;" parent="u9IRBjyvt4qCOGh6tf9W-73" vertex="1">
          <mxGeometry y="78" width="260" height="92" as="geometry" />
        </mxCell>
        <mxCell id="u9IRBjyvt4qCOGh6tf9W-69" value="Location" style="swimlane;fontStyle=1;align=center;verticalAlign=top;childLayout=stackLayout;horizontal=1;startSize=26;horizontalStack=0;resizeParent=1;resizeParentMax=0;resizeLast=0;collapsible=1;marginBottom=0;whiteSpace=wrap;html=1;" parent="Z3DLxL-PWDboXXJ2maVI-109" vertex="1">
          <mxGeometry x="360" y="150" width="240" height="130" as="geometry" />
        </mxCell>
        <mxCell id="u9IRBjyvt4qCOGh6tf9W-70" value="+ geometry: Geometry" style="text;strokeColor=none;fillColor=none;align=left;verticalAlign=top;spacingLeft=4;spacingRight=4;overflow=hidden;rotatable=0;points=[[0,0.5],[1,0.5]];portConstraint=eastwest;whiteSpace=wrap;html=1;" parent="u9IRBjyvt4qCOGh6tf9W-69" vertex="1">
          <mxGeometry y="26" width="240" height="34" as="geometry" />
        </mxCell>
        <mxCell id="u9IRBjyvt4qCOGh6tf9W-71" value="" style="line;strokeWidth=1;fillColor=none;align=left;verticalAlign=middle;spacingTop=-1;spacingLeft=3;spacingRight=3;rotatable=0;labelPosition=right;points=[];portConstraint=eastwest;strokeColor=inherit;" parent="u9IRBjyvt4qCOGh6tf9W-69" vertex="1">
          <mxGeometry y="60" width="240" height="8" as="geometry" />
        </mxCell>
        <mxCell id="u9IRBjyvt4qCOGh6tf9W-72" value="&lt;div&gt;&lt;span class=&quot;hljs-built_in&quot;&gt;- &lt;/span&gt;getGeometry(): Geometry&lt;/div&gt;&lt;div&gt;&lt;div&gt;- setGeometry(geometry: Geometry): void&lt;/div&gt;&lt;/div&gt;&lt;div&gt; &lt;span class=&quot;hljs-title function_ invoke__&quot;&gt;- toString&lt;/span&gt;(): String&lt;/div&gt;" style="text;strokeColor=none;fillColor=none;align=left;verticalAlign=top;spacingLeft=4;spacingRight=4;overflow=hidden;rotatable=0;points=[[0,0.5],[1,0.5]];portConstraint=eastwest;whiteSpace=wrap;html=1;" parent="u9IRBjyvt4qCOGh6tf9W-69" vertex="1">
          <mxGeometry y="68" width="240" height="62" as="geometry" />
        </mxCell>
        <mxCell id="u9IRBjyvt4qCOGh6tf9W-60" value="Coordinates" style="swimlane;fontStyle=1;align=center;verticalAlign=top;childLayout=stackLayout;horizontal=1;startSize=26;horizontalStack=0;resizeParent=1;resizeParentMax=0;resizeLast=0;collapsible=1;marginBottom=0;whiteSpace=wrap;html=1;" parent="Z3DLxL-PWDboXXJ2maVI-109" vertex="1">
          <mxGeometry x="420" y="640" width="270" height="170" as="geometry" />
        </mxCell>
        <mxCell id="u9IRBjyvt4qCOGh6tf9W-61" value="&lt;div&gt;+ lon: &lt;span class=&quot;hljs-keyword&quot;&gt;double&lt;/span&gt;&lt;br&gt;&lt;/div&gt;&lt;div&gt;+ lat: &lt;span class=&quot;hljs-keyword&quot;&gt;double&lt;/span&gt; &lt;br&gt;&lt;/div&gt;" style="text;strokeColor=none;fillColor=none;align=left;verticalAlign=top;spacingLeft=4;spacingRight=4;overflow=hidden;rotatable=0;points=[[0,0.5],[1,0.5]];portConstraint=eastwest;whiteSpace=wrap;html=1;" parent="u9IRBjyvt4qCOGh6tf9W-60" vertex="1">
          <mxGeometry y="26" width="270" height="44" as="geometry" />
        </mxCell>
        <mxCell id="u9IRBjyvt4qCOGh6tf9W-62" value="" style="line;strokeWidth=1;fillColor=none;align=left;verticalAlign=middle;spacingTop=-1;spacingLeft=3;spacingRight=3;rotatable=0;labelPosition=right;points=[];portConstraint=eastwest;strokeColor=inherit;" parent="u9IRBjyvt4qCOGh6tf9W-60" vertex="1">
          <mxGeometry y="70" width="270" height="8" as="geometry" />
        </mxCell>
        <mxCell id="u9IRBjyvt4qCOGh6tf9W-63" value="&lt;div&gt;- &lt;span class=&quot;hljs-title function_ invoke__&quot;&gt;getLon&lt;/span&gt;(): &lt;span class=&quot;hljs-keyword&quot;&gt;double&lt;/span&gt;&lt;/div&gt;&lt;div&gt;&lt;div&gt;- &lt;span class=&quot;hljs-title function_ invoke__&quot;&gt;setLon&lt;/span&gt;(&lt;span class=&quot;hljs-attr&quot;&gt;lon&lt;/span&gt;: &lt;span class=&quot;hljs-keyword&quot;&gt;double&lt;/span&gt;): &lt;span class=&quot;hljs-keyword&quot;&gt;void&lt;/span&gt; &lt;br&gt;&lt;/div&gt;&lt;/div&gt;&lt;div&gt;- &lt;span class=&quot;hljs-title function_ invoke__&quot;&gt;getLat&lt;/span&gt;(): &lt;span class=&quot;hljs-keyword&quot;&gt;double&lt;/span&gt;&lt;/div&gt;&lt;div&gt;-&amp;nbsp;&lt;span class=&quot;hljs-title function_ invoke__&quot;&gt;setLat&lt;/span&gt;(&lt;span class=&quot;hljs-attr&quot;&gt;lat&lt;/span&gt;: &lt;span class=&quot;hljs-keyword&quot;&gt;double&lt;/span&gt;): &lt;span class=&quot;hljs-keyword&quot;&gt;void&lt;/span&gt;&lt;/div&gt;&lt;div&gt; &lt;span class=&quot;hljs-title function_ invoke__&quot;&gt;toString&lt;/span&gt;(): String&lt;/div&gt;" style="text;strokeColor=none;fillColor=none;align=left;verticalAlign=top;spacingLeft=4;spacingRight=4;overflow=hidden;rotatable=0;points=[[0,0.5],[1,0.5]];portConstraint=eastwest;whiteSpace=wrap;html=1;" parent="u9IRBjyvt4qCOGh6tf9W-60" vertex="1">
          <mxGeometry y="78" width="270" height="92" as="geometry" />
        </mxCell>
        <mxCell id="Z3DLxL-PWDboXXJ2maVI-107" value="fi.tuni.TampereTrafficApp.models.ApiResponse" style="shape=umlFrame;whiteSpace=wrap;html=1;pointerEvents=0;recursiveResize=0;container=1;collapsible=0;width=270;height=40;" parent="Z3DLxL-PWDboXXJ2maVI-106" vertex="1">
          <mxGeometry x="10" y="50" width="790" height="320" as="geometry" />
        </mxCell>
        <mxCell id="u9IRBjyvt4qCOGh6tf9W-48" value="TrafficIncidentResponse " style="swimlane;fontStyle=1;align=center;verticalAlign=top;childLayout=stackLayout;horizontal=1;startSize=26;horizontalStack=0;resizeParent=1;resizeParentMax=0;resizeLast=0;collapsible=1;marginBottom=0;whiteSpace=wrap;html=1;" parent="Z3DLxL-PWDboXXJ2maVI-107" vertex="1">
          <mxGeometry x="10" y="100" width="270" height="220" as="geometry" />
        </mxCell>
        <mxCell id="u9IRBjyvt4qCOGh6tf9W-49" value="&lt;div&gt;+ modelBaseVersion: String&lt;/div&gt;&lt;div&gt;+ situationPublicationLight: SituationPublicationLight&amp;nbsp; &lt;br&gt;&lt;/div&gt;&lt;div&gt;&lt;br&gt;&lt;/div&gt;" style="text;strokeColor=none;fillColor=none;align=left;verticalAlign=top;spacingLeft=4;spacingRight=4;overflow=hidden;rotatable=0;points=[[0,0.5],[1,0.5]];portConstraint=eastwest;whiteSpace=wrap;html=1;" parent="u9IRBjyvt4qCOGh6tf9W-48" vertex="1">
          <mxGeometry y="26" width="270" height="44" as="geometry" />
        </mxCell>
        <mxCell id="u9IRBjyvt4qCOGh6tf9W-50" value="" style="line;strokeWidth=1;fillColor=none;align=left;verticalAlign=middle;spacingTop=-1;spacingLeft=3;spacingRight=3;rotatable=0;labelPosition=right;points=[];portConstraint=eastwest;strokeColor=inherit;" parent="u9IRBjyvt4qCOGh6tf9W-48" vertex="1">
          <mxGeometry y="70" width="270" height="20" as="geometry" />
        </mxCell>
        <mxCell id="u9IRBjyvt4qCOGh6tf9W-51" value="&lt;div&gt;- getModelBaseVerion(): String&lt;/div&gt;&lt;div&gt;- setModelBaseVersion(version: String): void&lt;/div&gt;&lt;div&gt;- getSituationPublicationLight(): SituationPublicationLight&lt;br&gt;&lt;/div&gt;&lt;div&gt;- setSituationPublicationLight&lt;/div&gt;&lt;div&gt;(situationPublicationLight:&lt;/div&gt;&lt;div&gt;getSituationPublicationLight): void&lt;/div&gt;&lt;div&gt;- toString(): String&lt;/div&gt;" style="text;strokeColor=none;fillColor=none;align=left;verticalAlign=top;spacingLeft=4;spacingRight=4;overflow=hidden;rotatable=0;points=[[0,0.5],[1,0.5]];portConstraint=eastwest;whiteSpace=wrap;html=1;" parent="u9IRBjyvt4qCOGh6tf9W-48" vertex="1">
          <mxGeometry y="90" width="270" height="130" as="geometry" />
        </mxCell>
        <mxCell id="u9IRBjyvt4qCOGh6tf9W-16" value="TrafficCameraResponse " style="swimlane;fontStyle=1;align=center;verticalAlign=top;childLayout=stackLayout;horizontal=1;startSize=26;horizontalStack=0;resizeParent=1;resizeParentMax=0;resizeLast=0;collapsible=1;marginBottom=0;whiteSpace=wrap;html=1;" parent="Z3DLxL-PWDboXXJ2maVI-107" vertex="1">
          <mxGeometry x="290" y="120" width="270" height="198" as="geometry" />
        </mxCell>
        <mxCell id="u9IRBjyvt4qCOGh6tf9W-17" value="&lt;div&gt;+ meta: Meta&lt;/div&gt;&lt;div&gt;+ results: List&amp;lt;TrafficCamera&amp;gt;&lt;/div&gt;&lt;br&gt;&lt;div&gt;&lt;br&gt;&lt;/div&gt;" style="text;strokeColor=none;fillColor=none;align=left;verticalAlign=top;spacingLeft=4;spacingRight=4;overflow=hidden;rotatable=0;points=[[0,0.5],[1,0.5]];portConstraint=eastwest;whiteSpace=wrap;html=1;" parent="u9IRBjyvt4qCOGh6tf9W-16" vertex="1">
          <mxGeometry y="26" width="270" height="44" as="geometry" />
        </mxCell>
        <mxCell id="u9IRBjyvt4qCOGh6tf9W-18" value="" style="line;strokeWidth=1;fillColor=none;align=left;verticalAlign=middle;spacingTop=-1;spacingLeft=3;spacingRight=3;rotatable=0;labelPosition=right;points=[];portConstraint=eastwest;strokeColor=inherit;" parent="u9IRBjyvt4qCOGh6tf9W-16" vertex="1">
          <mxGeometry y="70" width="270" height="8" as="geometry" />
        </mxCell>
        <mxCell id="u9IRBjyvt4qCOGh6tf9W-19" value="&lt;div&gt;- getMeta(): Meta&lt;/div&gt;&lt;div&gt;- setMeta(meta: Meta): void&lt;/div&gt;&lt;div&gt;- getResults(): List&amp;lt;TrafficCamera&amp;gt;&lt;/div&gt;&lt;div&gt;- setResults(results:List&amp;lt;TrafficCamera&amp;gt;): void&lt;/div&gt;&lt;div&gt;- toString(): String&lt;/div&gt;" style="text;strokeColor=none;fillColor=none;align=left;verticalAlign=top;spacingLeft=4;spacingRight=4;overflow=hidden;rotatable=0;points=[[0,0.5],[1,0.5]];portConstraint=eastwest;whiteSpace=wrap;html=1;" parent="u9IRBjyvt4qCOGh6tf9W-16" vertex="1">
          <mxGeometry y="78" width="270" height="120" as="geometry" />
        </mxCell>
        <mxCell id="rCoHJdOsXaLGTf1SRdRo-112" value="WeatherCameraResponse " style="swimlane;fontStyle=1;align=center;verticalAlign=top;childLayout=stackLayout;horizontal=1;startSize=26;horizontalStack=0;resizeParent=1;resizeParentMax=0;resizeLast=0;collapsible=1;marginBottom=0;whiteSpace=wrap;html=1;" parent="Z3DLxL-PWDboXXJ2maVI-107" vertex="1">
          <mxGeometry x="570" width="220" height="168" as="geometry" />
        </mxCell>
        <mxCell id="rCoHJdOsXaLGTf1SRdRo-113" value="&lt;div&gt;+ meta: Meta&lt;/div&gt;&lt;div&gt;+ results: List&amp;lt;WeatherCameraFeature&amp;gt;&lt;/div&gt;" style="text;strokeColor=none;fillColor=none;align=left;verticalAlign=top;spacingLeft=4;spacingRight=4;overflow=hidden;rotatable=0;points=[[0,0.5],[1,0.5]];portConstraint=eastwest;whiteSpace=wrap;html=1;" parent="rCoHJdOsXaLGTf1SRdRo-112" vertex="1">
          <mxGeometry y="26" width="220" height="44" as="geometry" />
        </mxCell>
        <mxCell id="rCoHJdOsXaLGTf1SRdRo-114" value="" style="line;strokeWidth=1;fillColor=none;align=left;verticalAlign=middle;spacingTop=-1;spacingLeft=3;spacingRight=3;rotatable=0;labelPosition=right;points=[];portConstraint=eastwest;strokeColor=inherit;" parent="rCoHJdOsXaLGTf1SRdRo-112" vertex="1">
          <mxGeometry y="70" width="220" height="8" as="geometry" />
        </mxCell>
        <mxCell id="rCoHJdOsXaLGTf1SRdRo-115" value="&lt;div&gt;- getMeta(): Meta&lt;/div&gt;&lt;div&gt;-getResults(): List&amp;lt;WeatherCameraFeature&amp;gt;- &lt;br&gt;&lt;/div&gt;" style="text;strokeColor=none;fillColor=none;align=left;verticalAlign=top;spacingLeft=4;spacingRight=4;overflow=hidden;rotatable=0;points=[[0,0.5],[1,0.5]];portConstraint=eastwest;whiteSpace=wrap;html=1;" parent="rCoHJdOsXaLGTf1SRdRo-112" vertex="1">
          <mxGeometry y="78" width="220" height="90" as="geometry" />
        </mxCell>
        <mxCell id="ldyree7pgtphj9hY0sVK-49" value="fi.tuni.TampereTrafficApp.models.WeatherCamera" style="shape=umlFrame;whiteSpace=wrap;html=1;pointerEvents=0;recursiveResize=0;container=1;collapsible=0;width=300;height=40;" vertex="1" parent="Z3DLxL-PWDboXXJ2maVI-106">
          <mxGeometry x="2030" y="60" width="740" height="900" as="geometry" />
        </mxCell>
        <mxCell id="ldyree7pgtphj9hY0sVK-50" value="Meta" style="swimlane;fontStyle=1;align=center;verticalAlign=top;childLayout=stackLayout;horizontal=1;startSize=26;horizontalStack=0;resizeParent=1;resizeParentMax=0;resizeLast=0;collapsible=1;marginBottom=0;whiteSpace=wrap;html=1;" vertex="1" parent="ldyree7pgtphj9hY0sVK-49">
          <mxGeometry x="10" y="60" width="260" height="140" as="geometry" />
        </mxCell>
        <mxCell id="ldyree7pgtphj9hY0sVK-51" value="+ timestamp: String" style="text;strokeColor=none;fillColor=none;align=left;verticalAlign=top;spacingLeft=4;spacingRight=4;overflow=hidden;rotatable=0;points=[[0,0.5],[1,0.5]];portConstraint=eastwest;whiteSpace=wrap;html=1;" vertex="1" parent="ldyree7pgtphj9hY0sVK-50">
          <mxGeometry y="26" width="260" height="34" as="geometry" />
        </mxCell>
        <mxCell id="ldyree7pgtphj9hY0sVK-52" value="" style="line;strokeWidth=1;fillColor=none;align=left;verticalAlign=middle;spacingTop=-1;spacingLeft=3;spacingRight=3;rotatable=0;labelPosition=right;points=[];portConstraint=eastwest;strokeColor=inherit;" vertex="1" parent="ldyree7pgtphj9hY0sVK-50">
          <mxGeometry y="60" width="260" height="8" as="geometry" />
        </mxCell>
        <mxCell id="ldyree7pgtphj9hY0sVK-53" value="&lt;div&gt;- &lt;span class=&quot;hljs-built_in&quot;&gt;getTimestamp&lt;/span&gt;(): &lt;span class=&quot;hljs-type&quot;&gt;String&lt;/span&gt;&lt;/div&gt;&lt;div&gt;- &lt;span class=&quot;hljs-built_in&quot;&gt;setTimestamp&lt;/span&gt;(&lt;span class=&quot;hljs-type&quot;&gt;String&lt;/span&gt;): &lt;span class=&quot;hljs-type&quot;&gt;void&lt;/span&gt;&lt;/div&gt;&lt;div&gt;&lt;span class=&quot;hljs-keyword&quot;&gt;- &lt;/span&gt;&lt;span class=&quot;hljs-title function_&quot;&gt;toString&lt;/span&gt;(): &lt;span class=&quot;hljs-title class_&quot;&gt;String&lt;/span&gt;&lt;/div&gt;" style="text;strokeColor=none;fillColor=none;align=left;verticalAlign=top;spacingLeft=4;spacingRight=4;overflow=hidden;rotatable=0;points=[[0,0.5],[1,0.5]];portConstraint=eastwest;whiteSpace=wrap;html=1;" vertex="1" parent="ldyree7pgtphj9hY0sVK-50">
          <mxGeometry y="68" width="260" height="72" as="geometry" />
        </mxCell>
        <mxCell id="ldyree7pgtphj9hY0sVK-54" value="WeatherCameraStation" style="swimlane;fontStyle=1;align=center;verticalAlign=top;childLayout=stackLayout;horizontal=1;startSize=26;horizontalStack=0;resizeParent=1;resizeParentMax=0;resizeLast=0;collapsible=1;marginBottom=0;whiteSpace=wrap;html=1;" vertex="1" parent="ldyree7pgtphj9hY0sVK-49">
          <mxGeometry x="300" y="60" width="330" height="140" as="geometry" />
        </mxCell>
        <mxCell id="ldyree7pgtphj9hY0sVK-55" value="+ features: List&lt;span class=&quot;hljs-operator&quot;&gt;&amp;lt;&lt;/span&gt;WeatherCameraFeature&lt;span class=&quot;hljs-operator&quot;&gt;&amp;gt;&lt;/span&gt;" style="text;strokeColor=none;fillColor=none;align=left;verticalAlign=top;spacingLeft=4;spacingRight=4;overflow=hidden;rotatable=0;points=[[0,0.5],[1,0.5]];portConstraint=eastwest;whiteSpace=wrap;html=1;" vertex="1" parent="ldyree7pgtphj9hY0sVK-54">
          <mxGeometry y="26" width="330" height="34" as="geometry" />
        </mxCell>
        <mxCell id="ldyree7pgtphj9hY0sVK-56" value="" style="line;strokeWidth=1;fillColor=none;align=left;verticalAlign=middle;spacingTop=-1;spacingLeft=3;spacingRight=3;rotatable=0;labelPosition=right;points=[];portConstraint=eastwest;strokeColor=inherit;" vertex="1" parent="ldyree7pgtphj9hY0sVK-54">
          <mxGeometry y="60" width="330" height="8" as="geometry" />
        </mxCell>
        <mxCell id="ldyree7pgtphj9hY0sVK-57" value="&lt;div&gt;- getFeatures(): List&lt;span class=&quot;hljs-operator&quot;&gt;&amp;lt;&lt;/span&gt;WeatherCameraFeature&lt;span class=&quot;hljs-operator&quot;&gt;&amp;gt;&lt;/span&gt;&lt;/div&gt;&lt;div&gt;- setFeatures(List&lt;span class=&quot;hljs-operator&quot;&gt;&amp;lt;&lt;/span&gt;WeatherCameraFeature&lt;span class=&quot;hljs-operator&quot;&gt;&amp;gt;&lt;/span&gt;): void&lt;/div&gt;&lt;div&gt;&lt;span class=&quot;hljs-keyword&quot;&gt;- &lt;/span&gt;&lt;span class=&quot;hljs-keyword&quot;&gt;equals&lt;/span&gt;(Object): &lt;span class=&quot;hljs-type&quot;&gt;boolean&lt;/span&gt;&lt;/div&gt;&lt;div&gt;&lt;span class=&quot;hljs-type&quot;&gt;- &lt;/span&gt;hashCode(): &lt;span class=&quot;hljs-type&quot;&gt;int&lt;/span&gt;&lt;/div&gt;" style="text;strokeColor=none;fillColor=none;align=left;verticalAlign=top;spacingLeft=4;spacingRight=4;overflow=hidden;rotatable=0;points=[[0,0.5],[1,0.5]];portConstraint=eastwest;whiteSpace=wrap;html=1;" vertex="1" parent="ldyree7pgtphj9hY0sVK-54">
          <mxGeometry y="68" width="330" height="72" as="geometry" />
        </mxCell>
        <mxCell id="ldyree7pgtphj9hY0sVK-58" value="WeatherCameraFeature" style="swimlane;fontStyle=1;align=center;verticalAlign=top;childLayout=stackLayout;horizontal=1;startSize=26;horizontalStack=0;resizeParent=1;resizeParentMax=0;resizeLast=0;collapsible=1;marginBottom=0;whiteSpace=wrap;html=1;" vertex="1" parent="ldyree7pgtphj9hY0sVK-49">
          <mxGeometry x="10" y="220" width="330" height="108" as="geometry" />
        </mxCell>
        <mxCell id="ldyree7pgtphj9hY0sVK-59" value="&lt;div&gt;+ type: String&lt;/div&gt;&lt;div&gt;+ id: String&lt;/div&gt;&lt;div&gt;+ geometry: Geometry&lt;/div&gt;&lt;div&gt;+ properties: Properties&lt;br&gt;&lt;/div&gt;" style="text;strokeColor=none;fillColor=none;align=left;verticalAlign=top;spacingLeft=4;spacingRight=4;overflow=hidden;rotatable=0;points=[[0,0.5],[1,0.5]];portConstraint=eastwest;whiteSpace=wrap;html=1;" vertex="1" parent="ldyree7pgtphj9hY0sVK-58">
          <mxGeometry y="26" width="330" height="74" as="geometry" />
        </mxCell>
        <mxCell id="ldyree7pgtphj9hY0sVK-60" value="" style="line;strokeWidth=1;fillColor=none;align=left;verticalAlign=middle;spacingTop=-1;spacingLeft=3;spacingRight=3;rotatable=0;labelPosition=right;points=[];portConstraint=eastwest;strokeColor=inherit;" vertex="1" parent="ldyree7pgtphj9hY0sVK-58">
          <mxGeometry y="100" width="330" height="8" as="geometry" />
        </mxCell>
        <mxCell id="ldyree7pgtphj9hY0sVK-62" value="Geometry" style="swimlane;fontStyle=1;align=center;verticalAlign=top;childLayout=stackLayout;horizontal=1;startSize=26;horizontalStack=0;resizeParent=1;resizeParentMax=0;resizeLast=0;collapsible=1;marginBottom=0;whiteSpace=wrap;html=1;" vertex="1" parent="ldyree7pgtphj9hY0sVK-49">
          <mxGeometry x="370" y="220" width="330" height="78" as="geometry" />
        </mxCell>
        <mxCell id="ldyree7pgtphj9hY0sVK-63" value="&lt;div&gt;+ type: String&lt;/div&gt;&lt;div&gt;+ coordinates: double[]&lt;br&gt;&lt;/div&gt;" style="text;strokeColor=none;fillColor=none;align=left;verticalAlign=top;spacingLeft=4;spacingRight=4;overflow=hidden;rotatable=0;points=[[0,0.5],[1,0.5]];portConstraint=eastwest;whiteSpace=wrap;html=1;" vertex="1" parent="ldyree7pgtphj9hY0sVK-62">
          <mxGeometry y="26" width="330" height="44" as="geometry" />
        </mxCell>
        <mxCell id="ldyree7pgtphj9hY0sVK-64" value="" style="line;strokeWidth=1;fillColor=none;align=left;verticalAlign=middle;spacingTop=-1;spacingLeft=3;spacingRight=3;rotatable=0;labelPosition=right;points=[];portConstraint=eastwest;strokeColor=inherit;" vertex="1" parent="ldyree7pgtphj9hY0sVK-62">
          <mxGeometry y="70" width="330" height="8" as="geometry" />
        </mxCell>
        <mxCell id="ldyree7pgtphj9hY0sVK-65" value="Names" style="swimlane;fontStyle=1;align=center;verticalAlign=top;childLayout=stackLayout;horizontal=1;startSize=26;horizontalStack=0;resizeParent=1;resizeParentMax=0;resizeLast=0;collapsible=1;marginBottom=0;whiteSpace=wrap;html=1;" vertex="1" parent="ldyree7pgtphj9hY0sVK-49">
          <mxGeometry x="10" y="340" width="330" height="108" as="geometry" />
        </mxCell>
        <mxCell id="ldyree7pgtphj9hY0sVK-66" value="&lt;li&gt;+ fi: String&lt;/li&gt;&lt;li&gt;+ sv: String&lt;/li&gt;&lt;li&gt;+ en: String&lt;/li&gt;" style="text;strokeColor=none;fillColor=none;align=left;verticalAlign=top;spacingLeft=4;spacingRight=4;overflow=hidden;rotatable=0;points=[[0,0.5],[1,0.5]];portConstraint=eastwest;whiteSpace=wrap;html=1;" vertex="1" parent="ldyree7pgtphj9hY0sVK-65">
          <mxGeometry y="26" width="330" height="74" as="geometry" />
        </mxCell>
        <mxCell id="ldyree7pgtphj9hY0sVK-67" value="" style="line;strokeWidth=1;fillColor=none;align=left;verticalAlign=middle;spacingTop=-1;spacingLeft=3;spacingRight=3;rotatable=0;labelPosition=right;points=[];portConstraint=eastwest;strokeColor=inherit;" vertex="1" parent="ldyree7pgtphj9hY0sVK-65">
          <mxGeometry y="100" width="330" height="8" as="geometry" />
        </mxCell>
        <mxCell id="ldyree7pgtphj9hY0sVK-68" value="RoadAddress" style="swimlane;fontStyle=1;align=center;verticalAlign=top;childLayout=stackLayout;horizontal=1;startSize=26;horizontalStack=0;resizeParent=1;resizeParentMax=0;resizeLast=0;collapsible=1;marginBottom=0;whiteSpace=wrap;html=1;" vertex="1" parent="ldyree7pgtphj9hY0sVK-49">
          <mxGeometry x="370" y="320" width="330" height="200" as="geometry" />
        </mxCell>
        <mxCell id="ldyree7pgtphj9hY0sVK-69" value="&lt;li&gt;+ roadNumber: int&lt;/li&gt;&lt;li&gt;+ roadSection: int&lt;/li&gt;&lt;li&gt;+ distanceFromRoadSectionStart: int&lt;/li&gt;&lt;li&gt;+ carriageway: String&lt;/li&gt;&lt;li&gt;+ side: String&lt;/li&gt;&lt;li&gt;+ contractArea: String&lt;/li&gt;&lt;li&gt;+ contractAreaCode: int&lt;/li&gt;" style="text;strokeColor=none;fillColor=none;align=left;verticalAlign=top;spacingLeft=4;spacingRight=4;overflow=hidden;rotatable=0;points=[[0,0.5],[1,0.5]];portConstraint=eastwest;whiteSpace=wrap;html=1;" vertex="1" parent="ldyree7pgtphj9hY0sVK-68">
          <mxGeometry y="26" width="330" height="134" as="geometry" />
        </mxCell>
        <mxCell id="ldyree7pgtphj9hY0sVK-70" value="" style="line;strokeWidth=1;fillColor=none;align=left;verticalAlign=middle;spacingTop=-1;spacingLeft=3;spacingRight=3;rotatable=0;labelPosition=right;points=[];portConstraint=eastwest;strokeColor=inherit;" vertex="1" parent="ldyree7pgtphj9hY0sVK-68">
          <mxGeometry y="160" width="330" height="40" as="geometry" />
        </mxCell>
        <mxCell id="ldyree7pgtphj9hY0sVK-74" value="Properties" style="swimlane;fontStyle=1;align=center;verticalAlign=top;childLayout=stackLayout;horizontal=1;startSize=26;horizontalStack=0;resizeParent=1;resizeParentMax=0;resizeLast=0;collapsible=1;marginBottom=0;whiteSpace=wrap;html=1;" vertex="1" parent="ldyree7pgtphj9hY0sVK-49">
          <mxGeometry x="28" y="470" width="330" height="378" as="geometry" />
        </mxCell>
        <mxCell id="ldyree7pgtphj9hY0sVK-75" value="&lt;div class=&quot;mxCellEditor geContentEditable&quot;&gt;&lt;li&gt;+ id: String&lt;/li&gt;&lt;li&gt;+ name: String&lt;/li&gt;&lt;li&gt;+ cameraType: String&lt;/li&gt;&lt;li&gt;+ nearestWeatherStationId: int&lt;/li&gt;&lt;li&gt;+ collectionStatus: String&lt;/li&gt;&lt;li&gt;+ state: String&lt;/li&gt;&lt;li&gt;+ dataUpdatedTime: String&lt;/li&gt;&lt;li&gt;+ collectionInterval: int&lt;/li&gt;&lt;li&gt;+ names: Names&lt;/li&gt;&lt;li&gt;+ roadAddress: RoadAddress&lt;/li&gt;&lt;li&gt;+ liviId: String&lt;/li&gt;&lt;li&gt;+ country: String&lt;/li&gt;&lt;li&gt;+ startTime: String&lt;/li&gt;&lt;li&gt;+ repairMaintenanceTime: String&lt;/li&gt;&lt;li&gt;+ annualMaintenanceTime: String&lt;/li&gt;&lt;li&gt;+ purpose: String&lt;/li&gt;&lt;li&gt;+ municipality: String&lt;/li&gt;&lt;li&gt;+ municipalityCode: int&lt;/li&gt;&lt;li&gt;+ province: String&lt;/li&gt;&lt;li&gt;+ provinceCode: int&lt;/li&gt;&lt;li&gt;+ presets: List&amp;lt;Preset&amp;gt;&lt;/li&gt;&lt;/div&gt;" style="text;strokeColor=none;fillColor=none;align=left;verticalAlign=top;spacingLeft=4;spacingRight=4;overflow=hidden;rotatable=0;points=[[0,0.5],[1,0.5]];portConstraint=eastwest;whiteSpace=wrap;html=1;" vertex="1" parent="ldyree7pgtphj9hY0sVK-74">
          <mxGeometry y="26" width="330" height="344" as="geometry" />
        </mxCell>
        <mxCell id="ldyree7pgtphj9hY0sVK-76" value="" style="line;strokeWidth=1;fillColor=none;align=left;verticalAlign=middle;spacingTop=-1;spacingLeft=3;spacingRight=3;rotatable=0;labelPosition=right;points=[];portConstraint=eastwest;strokeColor=inherit;" vertex="1" parent="ldyree7pgtphj9hY0sVK-74">
          <mxGeometry y="370" width="330" height="8" as="geometry" />
        </mxCell>
      </root>
    </mxGraphModel>
  </diagram>
</mxfile>
